*
*
G04 PADS Layout (Build Number 2004.211.1) generated Gerber (RS-274-X) file*
G04 PC Version=2.1*
*
%IN "BD9E300EFJ-EVK-004.pcb"*%
*
%MOMM*%
*
%FSLAX35Y35*%
*
*
*
*
G04 PC Standard Apertures*
*
*
G04 Thermal Relief Aperture macro.*
%AMTER*
1,1,$1,0,0*
1,0,$1-$2,0,0*
21,0,$3,$4,0,0,45*
21,0,$3,$4,0,0,135*
%
*
*
G04 Annular Aperture macro.*
%AMANN*
1,1,$1,0,0*
1,0,$2,0,0*
%
*
*
G04 Odd Aperture macro.*
%AMODD*
1,1,$1,0,0*
1,0,$1-0.005,0,0*
%
*
*
G04 PC Custom Aperture Macros*
*
*
*
*
*
*
G04 PC Aperture Table*
*
%ADD011R,0.9X0.7*%
%ADD013R,2.6X1.4*%
%ADD014C,1.8*%
%ADD016C,1.6*%
%ADD017C,3.3*%
%ADD018C,0.15*%
%ADD019C,0.2*%
%ADD020C,0.6*%
%ADD022C,2*%
%ADD023C,0.3*%
%ADD036R,0.7X0.9*%
%ADD045R,1.2X1.7*%
%ADD046R,2.2X1.7*%
%ADD047R,1.4X0.75*%
%ADD048R,3.2X4.9*%
%ADD049C,0.5*%
*
*
*
*
G04 PC Custom Flashes*
G04 Layer Name BD9E300EFJ-EVK-004.pcb - flashes*
%LPD*%
*
*
G04 PC Circuitry*
G04 Layer Name BD9E300EFJ-EVK-004.pcb - circuitry*
%LPD*%
*
G54D11*
G01X13350000Y11330000D03*
Y11470000D03*
X13000000Y12270000D03*
Y12130000D03*
X12850000D03*
Y12270000D03*
G54D13*
X11850000Y12070000D03*
Y12330000D03*
X11450000Y12070000D03*
Y12330000D03*
G54D14*
X11850000Y14200000D03*
X11600000D03*
X11350000D03*
G54D16*
X11850000Y11800000D03*
Y12800000D03*
X13800000Y13100000D03*
X12700000D03*
X13100000Y11900000D03*
Y11400000D03*
G54D17*
X10500000Y10500000D03*
X14500000D03*
X10500000Y14500000D03*
X14500000D03*
G54D18*
X12510000Y11350000D02*
X12465910Y11365910D01*
X12487500Y11350000*
X12465910Y11334090*
X12510000Y11350000*
X12467144Y11335000D02*
X12468431D01*
X12487500Y11350000D02*
X12510000D01*
X12467144Y11365000D02*
X12468431D01*
X12475000Y11337370D02*
Y11340788D01*
Y11359211D02*
Y11362629D01*
X12490000Y11342783D02*
Y11357217D01*
X12505000Y11348195D02*
Y11351804D01*
X12490000Y11350000D02*
X12534090Y11334090D01*
X12512500Y11350000*
X12534090Y11365910*
X12490000Y11350000*
X12531568Y11335000D02*
X12532855D01*
X12490000Y11350000D02*
X12512500D01*
X12531568Y11365000D02*
X12532855D01*
X12490000Y11350000D02*
X12490000D01*
X12505000Y11344587D02*
Y11355412D01*
X12520000Y11339174D02*
Y11344473D01*
Y11355526D02*
Y11360825D01*
X12510000Y11550000D02*
X12465910Y11565910D01*
X12487500Y11550000*
X12465910Y11534090*
X12510000Y11550000*
X12480715Y11545000D02*
X12496143D01*
X12473929Y11560000D02*
X12482287D01*
X12475000Y11537370D02*
Y11540788D01*
Y11559211D02*
Y11562629D01*
X12490000Y11542783D02*
Y11557217D01*
X12505000Y11548195D02*
Y11551804D01*
X12490000Y11550000D02*
X12534090Y11534090D01*
X12512500Y11550000*
X12534090Y11565910*
X12490000Y11550000*
X12503856Y11545000D02*
X12519285D01*
X12517712Y11560000D02*
X12526070D01*
X12490000Y11550000D02*
X12490000D01*
X12505000Y11544587D02*
Y11555412D01*
X12520000Y11539174D02*
Y11544473D01*
Y11555526D02*
Y11560825D01*
X12510000Y11450000D02*
X12465910Y11465910D01*
X12487500Y11450000*
X12465910Y11434090*
X12510000Y11450000*
X12473929Y11440000D02*
X12482287D01*
X12480714Y11455000D02*
X12496144D01*
X12475000Y11437370D02*
Y11440788D01*
Y11459211D02*
Y11462629D01*
X12490000Y11442783D02*
Y11457217D01*
X12505000Y11448195D02*
Y11451804D01*
X12490000Y11450000D02*
X12534090Y11434090D01*
X12512500Y11450000*
X12534090Y11465910*
X12490000Y11450000*
X12517712Y11440000D02*
X12526070D01*
X12503856Y11455000D02*
X12519285D01*
X12490000Y11450000D02*
X12490000D01*
X12505000Y11444587D02*
Y11455412D01*
X12520000Y11439174D02*
Y11444473D01*
Y11455526D02*
Y11460825D01*
X12610000Y11350000D02*
X12565910Y11365910D01*
X12587500Y11350000*
X12565910Y11334090*
X12610000Y11350000*
X12567144Y11335000D02*
X12568431D01*
X12587500Y11350000D02*
X12610000D01*
X12567144Y11365000D02*
X12568431D01*
X12580000Y11339174D02*
Y11344473D01*
Y11355526D02*
Y11360825D01*
X12595000Y11344587D02*
Y11355412D01*
X12610000Y11350000D02*
X12610000D01*
X12590000D02*
X12634090Y11334090D01*
X12612500Y11350000*
X12634090Y11365910*
X12590000Y11350000*
X12631568Y11335000D02*
X12632855D01*
X12590000Y11350000D02*
X12612500D01*
X12631568Y11365000D02*
X12632855D01*
X12595000Y11348195D02*
Y11351804D01*
X12610000Y11342783D02*
Y11357217D01*
X12625000Y11337370D02*
Y11340788D01*
Y11359211D02*
Y11362629D01*
X12650000Y11290000D02*
X12665910Y11334090D01*
X12650000Y11312500*
X12634090Y11334090*
X12650000Y11290000*
X12650000*
X12644587Y11305000D02*
X12655412D01*
X12639174Y11320000D02*
X12644473D01*
X12655526D02*
X12660825D01*
X12640000Y11317712D02*
Y11326070D01*
X12655000Y11303856D02*
Y11319285D01*
X12650000Y11390000D02*
X12665910Y11434090D01*
X12650000Y11412500*
X12634090Y11434090*
X12650000Y11390000*
X12648195Y11395000D02*
X12651804D01*
X12642783Y11410000D02*
X12657217D01*
X12637370Y11425000D02*
X12640788D01*
X12659211D02*
X12662629D01*
X12640000Y11417712D02*
Y11426070D01*
X12655000Y11403856D02*
Y11419285D01*
X12650000Y11410000D02*
X12634090Y11365910D01*
X12650000Y11387500*
X12665910Y11365910*
X12650000Y11410000*
X12639174Y11380000D02*
X12644473D01*
X12655526D02*
X12660825D01*
X12644587Y11395000D02*
X12655412D01*
X12650000Y11410000D02*
X12650000D01*
X12640000Y11373929D02*
Y11382287D01*
X12655000Y11380715D02*
Y11396143D01*
X12550000Y11610000D02*
X12534090Y11565910D01*
X12550000Y11587500*
X12565910Y11565910*
X12550000Y11610000*
X12537370Y11575000D02*
X12540788D01*
X12559211D02*
X12562629D01*
X12542783Y11590000D02*
X12557217D01*
X12548195Y11605000D02*
X12551804D01*
X12535000Y11567144D02*
Y11568431D01*
X12550000Y11587500D02*
Y11610000D01*
X12565000Y11567144D02*
Y11568431D01*
X12550000Y11590000D02*
X12565910Y11634090D01*
X12550000Y11612500*
X12534090Y11634090*
X12550000Y11590000*
X12550000*
X12544587Y11605000D02*
X12555412D01*
X12539174Y11620000D02*
X12544473D01*
X12555526D02*
X12560825D01*
X12535000Y11631568D02*
Y11632855D01*
X12550000Y11590000D02*
Y11612500D01*
X12565000Y11631568D02*
Y11632855D01*
X12610000Y11450000D02*
X12565910Y11465910D01*
X12587500Y11450000*
X12565910Y11434090*
X12610000Y11450000*
X12573929Y11440000D02*
X12582287D01*
X12580714Y11455000D02*
X12596144D01*
X12580000Y11439174D02*
Y11444473D01*
Y11455526D02*
Y11460825D01*
X12595000Y11444587D02*
Y11455412D01*
X12610000Y11450000D02*
X12610000D01*
X12590000D02*
X12634090Y11434090D01*
X12612500Y11450000*
X12634090Y11465910*
X12590000Y11450000*
X12617712Y11440000D02*
X12626070D01*
X12603856Y11455000D02*
X12619285D01*
X12595000Y11448195D02*
Y11451804D01*
X12610000Y11442783D02*
Y11457217D01*
X12625000Y11437370D02*
Y11440788D01*
Y11459211D02*
Y11462629D01*
X11850000Y11960000D02*
X11798734Y11851265D01*
X11798734D02*
X11850000Y11887500D01*
X11901265Y11851265*
X11850000Y11960000*
X11802853Y11860000D02*
X11811092D01*
X11888907D02*
X11897147D01*
X11809925Y11875000D02*
X11832314D01*
X11867685D02*
X11890075D01*
X11816997Y11890000D02*
X11883003D01*
X11824069Y11905000D02*
X11875930D01*
X11831141Y11920000D02*
X11868858D01*
X11838213Y11935000D02*
X11861786D01*
X11845285Y11950000D02*
X11854714D01*
X11800000Y11852159D02*
Y11853948D01*
X11815000Y11862761D02*
Y11885764D01*
X11830000Y11873363D02*
Y11917579D01*
X11845000Y11883966D02*
Y11949395D01*
X11860000Y11880431D02*
Y11938789D01*
X11875000Y11869829D02*
Y11906974D01*
X11890000Y11859227D02*
Y11875159D01*
X12550000Y11910000D02*
X12534090Y11865910D01*
X12550000Y11887500*
X12565910Y11865910*
X12550000Y11910000*
X12537370Y11875000D02*
X12540788D01*
X12559211D02*
X12562629D01*
X12542783Y11890000D02*
X12557217D01*
X12548195Y11905000D02*
X12551804D01*
X12535000Y11867144D02*
Y11868431D01*
X12550000Y11887500D02*
Y11910000D01*
X12565000Y11867144D02*
Y11868431D01*
X12550000Y11890000D02*
X12565910Y11934090D01*
X12550000Y11912500*
X12534090Y11934090*
X12550000Y11890000*
X12550000*
X12544587Y11905000D02*
X12555412D01*
X12539174Y11920000D02*
X12544473D01*
X12555526D02*
X12560825D01*
X12535000Y11931568D02*
Y11932855D01*
X12550000Y11890000D02*
Y11912500D01*
X12565000Y11931568D02*
Y11932855D01*
X12550000Y11790000D02*
X12565910Y11834090D01*
X12550000Y11812500*
X12534090Y11834090*
X12550000Y11790000*
X12546391Y11800000D02*
X12553608D01*
X12540978Y11815000D02*
X12548157D01*
X12551842D02*
X12559021D01*
X12535566Y11830000D02*
X12537104D01*
X12562896D02*
X12564434D01*
X12535000Y11831568D02*
Y11832855D01*
X12550000Y11790000D02*
Y11812500D01*
X12565000Y11831568D02*
Y11832855D01*
X10800000Y11946000D02*
X10665407Y12011407D01*
X10665407D02*
X10707500Y11946000D01*
X10665407Y11880592*
X10665407D02*
X10800000Y11946000D01*
X10671461Y11890000D02*
X10684765D01*
X10681114Y11905000D02*
X10715631D01*
X10690767Y11920000D02*
X10746498D01*
X10700421Y11935000D02*
X10777364D01*
X10704925Y11950000D02*
X10791769D01*
X10695272Y11965000D02*
X10760902D01*
X10685619Y11980000D02*
X10730036D01*
X10675966Y11995000D02*
X10699170D01*
X10666313Y12010000D02*
X10668303D01*
X10675000Y11885254D02*
Y11895498D01*
Y11996501D02*
Y12006745D01*
X10690000Y11892543D02*
Y11918806D01*
Y11973193D02*
Y11999456D01*
X10705000Y11899833D02*
Y11942115D01*
Y11949884D02*
Y11992166D01*
X10720000Y11907122D02*
Y11984877D01*
X10735000Y11914412D02*
Y11977587D01*
X10750000Y11921701D02*
Y11970298D01*
X10765000Y11928991D02*
Y11963008D01*
X10780000Y11936280D02*
Y11955719D01*
X10795000Y11943570D02*
Y11948429D01*
X12510000Y11950000D02*
X12465910Y11965910D01*
X12487500Y11950000*
X12465910Y11934090*
X12510000Y11950000*
X12467144Y11935000D02*
X12468431D01*
X12487500Y11950000D02*
X12510000D01*
X12467144Y11965000D02*
X12468431D01*
X12475000Y11937370D02*
Y11940788D01*
Y11959211D02*
Y11962629D01*
X12490000Y11942783D02*
Y11957217D01*
X12505000Y11948195D02*
Y11951804D01*
X12490000Y11950000D02*
X12534090Y11934090D01*
X12512500Y11950000*
X12534090Y11965910*
X12490000Y11950000*
X12531568Y11935000D02*
X12532855D01*
X12490000Y11950000D02*
X12512500D01*
X12531568Y11965000D02*
X12532855D01*
X12490000Y11950000D02*
X12490000D01*
X12505000Y11944587D02*
Y11955412D01*
X12520000Y11939174D02*
Y11944473D01*
Y11955526D02*
Y11960825D01*
X12550000Y12010000D02*
X12534090Y11965910D01*
X12550000Y11987500*
X12565910Y11965910*
X12550000Y12010000*
X12539174Y11980000D02*
X12544473D01*
X12555526D02*
X12560825D01*
X12544587Y11995000D02*
X12555412D01*
X12550000Y12010000D02*
X12550000D01*
X12535000Y11967144D02*
Y11968431D01*
X12550000Y11987500D02*
Y12010000D01*
X12565000Y11967144D02*
Y11968431D01*
X12550000Y11990000D02*
X12565910Y12034090D01*
X12550000Y12012500*
X12534090Y12034090*
X12550000Y11990000*
X12548195Y11995000D02*
X12551804D01*
X12542783Y12010000D02*
X12557217D01*
X12537370Y12025000D02*
X12540788D01*
X12559211D02*
X12562629D01*
X12535000Y12031568D02*
Y12032855D01*
X12550000Y11990000D02*
Y12012500D01*
X12565000Y12031568D02*
Y12032855D01*
X12610000Y11950000D02*
X12565910Y11965910D01*
X12587500Y11950000*
X12565910Y11934090*
X12610000Y11950000*
X12567144Y11935000D02*
X12568431D01*
X12587500Y11950000D02*
X12610000D01*
X12567144Y11965000D02*
X12568431D01*
X12580000Y11939174D02*
Y11944473D01*
Y11955526D02*
Y11960825D01*
X12595000Y11944587D02*
Y11955412D01*
X12610000Y11950000D02*
X12610000D01*
X12590000D02*
X12634090Y11934090D01*
X12612500Y11950000*
X12634090Y11965910*
X12590000Y11950000*
X12631568Y11935000D02*
X12632855D01*
X12590000Y11950000D02*
X12612500D01*
X12631568Y11965000D02*
X12632855D01*
X12595000Y11948195D02*
Y11951804D01*
X12610000Y11942783D02*
Y11957217D01*
X12625000Y11937370D02*
Y11940788D01*
Y11959211D02*
Y11962629D01*
X13100000Y12060000D02*
X13048734Y11951265D01*
X13048734D02*
X13100000Y11987500D01*
X13151265Y11951265*
X13100000Y12060000*
X13055210Y11965000D02*
X13068166D01*
X13131833D02*
X13144789D01*
X13062282Y11980000D02*
X13089388D01*
X13110611D02*
X13137717D01*
X13069354Y11995000D02*
X13130645D01*
X13076426Y12010000D02*
X13123573D01*
X13083498Y12025000D02*
X13116501D01*
X13090570Y12040000D02*
X13109429D01*
X13097642Y12055000D02*
X13102357D01*
X13060000Y11959227D02*
Y11975159D01*
X13075000Y11969829D02*
Y12006974D01*
X13090000Y11980431D02*
Y12038789D01*
X13105000Y11983966D02*
Y12049394D01*
X13120000Y11973363D02*
Y12017579D01*
X13135000Y11962761D02*
Y11985764D01*
X13150000Y11952159D02*
Y11953949D01*
X10600000Y12654000D02*
X10534592Y12519407D01*
X10534592D02*
X10600000Y12561500D01*
X10665407Y12519407*
X10665407D02*
X10600000Y12654000D01*
X10534880Y12520000D02*
X10535513D01*
X10664486D02*
X10665119D01*
X10542170Y12535000D02*
X10558821D01*
X10641178D02*
X10657830D01*
X10549459Y12550000D02*
X10582130D01*
X10617869D02*
X10650540D01*
X10556749Y12565000D02*
X10643251D01*
X10564038Y12580000D02*
X10635961D01*
X10571328Y12595000D02*
X10628672D01*
X10578617Y12610000D02*
X10621382D01*
X10585907Y12625000D02*
X10614093D01*
X10593196Y12640000D02*
X10606803D01*
X10540000Y12522887D02*
Y12530534D01*
X10555000Y12532540D02*
Y12561400D01*
X10570000Y12542193D02*
Y12592267D01*
X10585000Y12551846D02*
Y12623133D01*
X10600000Y12561500D02*
Y12654000D01*
X10615000Y12551846D02*
Y12623133D01*
X10630000Y12542193D02*
Y12592267D01*
X10645000Y12532540D02*
Y12561401D01*
X10660000Y12522887D02*
Y12530534D01*
X11222720Y14072720D02*
X11350000Y14117500D01*
X11281057Y14131057*
X11267500Y14200000*
X11222720Y14072720*
X11225281Y14080000D02*
X11243410D01*
X11230559Y14095000D02*
X11286046D01*
X11235836Y14110000D02*
X11328682D01*
X11241113Y14125000D02*
X11311860D01*
X11246390Y14140000D02*
X11279298D01*
X11251668Y14155000D02*
X11276348D01*
X11256945Y14170000D02*
X11273399D01*
X11262222Y14185000D02*
X11270449D01*
X11267500Y14200000D02*
X11267500D01*
X11230000Y14075281D02*
Y14093410D01*
X11245000Y14080559D02*
Y14136046D01*
X11260000Y14085836D02*
Y14178682D01*
X11275000Y14091113D02*
Y14161859D01*
X11290000Y14096390D02*
Y14129298D01*
X11305000Y14101668D02*
Y14126348D01*
X11320000Y14106945D02*
Y14123399D01*
X11335000Y14112222D02*
Y14120449D01*
X11350000Y14117500D02*
X11350000D01*
X10800000Y12454000D02*
X10665407Y12519407D01*
X10665407D02*
X10707500Y12454000D01*
X10665407Y12388592*
X10665407D02*
X10800000Y12454000D01*
X10672748Y12400000D02*
X10688881D01*
X10682401Y12415000D02*
X10719747D01*
X10692055Y12430000D02*
X10750613D01*
X10701708Y12445000D02*
X10781480D01*
X10703638Y12460000D02*
X10787653D01*
X10693985Y12475000D02*
X10756787D01*
X10684332Y12490000D02*
X10725920D01*
X10674679Y12505000D02*
X10695054D01*
X10675000Y12393254D02*
Y12403498D01*
Y12504501D02*
Y12514745D01*
X10690000Y12400543D02*
Y12426806D01*
Y12481193D02*
Y12507456D01*
X10705000Y12407833D02*
Y12450115D01*
Y12457884D02*
Y12500166D01*
X10720000Y12415122D02*
Y12492877D01*
X10735000Y12422412D02*
Y12485587D01*
X10750000Y12429701D02*
Y12478298D01*
X10765000Y12436991D02*
Y12471008D01*
X10780000Y12444280D02*
Y12463719D01*
X10795000Y12451570D02*
Y12456429D01*
X11850000Y12640000D02*
X11901265Y12748734D01*
X11901265D02*
X11850000Y12712500D01*
X11798734Y12748734*
X11798734D02*
X11850000Y12640000D01*
X11850000*
X11842927Y12655000D02*
X11857072D01*
X11835855Y12670000D02*
X11864144D01*
X11828783Y12685000D02*
X11871216D01*
X11821711Y12700000D02*
X11878288D01*
X11814639Y12715000D02*
X11846462D01*
X11853537D02*
X11885360D01*
X11807567Y12730000D02*
X11825240D01*
X11874759D02*
X11892432D01*
X11800495Y12745000D02*
X11804018D01*
X11895981D02*
X11899504D01*
X11800000Y12746051D02*
Y12747840D01*
X11815000Y12714235D02*
Y12737238D01*
X11830000Y12682420D02*
Y12726636D01*
X11845000Y12650605D02*
Y12716034D01*
X11860000Y12661210D02*
Y12719568D01*
X11875000Y12693025D02*
Y12730170D01*
X11890000Y12724840D02*
Y12740772D01*
X12840000Y12800000D02*
X12884090Y12784090D01*
X12862500Y12800000*
X12884090Y12815910*
X12840000Y12800000*
X12867712Y12790000D02*
X12876070D01*
X12853856Y12805000D02*
X12869285D01*
X12850000Y12796391D02*
Y12803608D01*
X12865000Y12790978D02*
Y12798157D01*
Y12801842D02*
Y12809021D01*
X12880000Y12785566D02*
Y12787104D01*
Y12812896D02*
Y12814434D01*
X12942426Y12842426D02*
X12900000Y12822500D01*
X12926516Y12826516*
X12926516D02*
X12922500Y12800000D01*
X12942426Y12842426*
X12923257Y12805000D02*
X12924848D01*
X12925529Y12820000D02*
X12931893D01*
X12926614Y12835000D02*
X12938938D01*
X12910000Y12824014D02*
Y12827196D01*
X12925000Y12805322D02*
Y12816504D01*
Y12826286D02*
Y12834241D01*
X12940000Y12837260D02*
Y12841286D01*
X12957573Y12857573D02*
X13000000Y12877500D01*
X12973483Y12873483*
X12973483D02*
X12977500Y12900000D01*
X12957573Y12857573*
X12961061Y12865000D02*
X12973385D01*
X12968106Y12880000D02*
X12974470D01*
X12975151Y12895000D02*
X12976742D01*
X12970000Y12863410D02*
Y12884031D01*
X12985000Y12870455D02*
Y12875228D01*
X13000000Y12877500D02*
X13000000D01*
X12960000Y12800000D02*
X12915910Y12815910D01*
X12937500Y12800000*
X12915910Y12784090*
X12960000Y12800000*
X12923929Y12790000D02*
X12932287D01*
X12930714Y12805000D02*
X12946144D01*
X12925000Y12787370D02*
Y12790788D01*
Y12809211D02*
Y12812629D01*
X12940000Y12792783D02*
Y12807217D01*
X12955000Y12798195D02*
Y12801804D01*
X13040000Y12800000D02*
X13084090Y12784090D01*
X13062500Y12800000*
X13084090Y12815910*
X13040000Y12800000*
X13067712Y12790000D02*
X13076070D01*
X13053856Y12805000D02*
X13069285D01*
X13045000Y12798195D02*
Y12801804D01*
X13060000Y12792783D02*
Y12807217D01*
X13075000Y12787370D02*
Y12790788D01*
Y12809211D02*
Y12812629D01*
X12860000Y13100000D02*
X12751265Y13151265D01*
X12787500Y13100000*
X12751265Y13048734*
X12751265D02*
X12860000Y13100000D01*
X12759227Y13060000D02*
X12775159D01*
X12769829Y13075000D02*
X12806974D01*
X12780432Y13090000D02*
X12838789D01*
X12783965Y13105000D02*
X12849395D01*
X12773363Y13120000D02*
X12817579D01*
X12762761Y13135000D02*
X12785764D01*
X12752159Y13150000D02*
X12753949D01*
X12760000Y13052853D02*
Y13061092D01*
Y13138907D02*
Y13147147D01*
X12775000Y13059925D02*
Y13082314D01*
Y13117685D02*
Y13140075D01*
X12790000Y13066997D02*
Y13133003D01*
X12805000Y13074069D02*
Y13125930D01*
X12820000Y13081141D02*
Y13118858D01*
X12835000Y13088213D02*
Y13111786D01*
X12850000Y13095285D02*
Y13104714D01*
X12940000Y13100000D02*
X12984090Y13084090D01*
X12962500Y13100000*
X12984090Y13115910*
X12940000Y13100000*
X12967712Y13090000D02*
X12976070D01*
X12953856Y13105000D02*
X12969285D01*
X12940000Y13100000D02*
X12940000D01*
X12955000Y13094587D02*
Y13105412D01*
X12970000Y13089174D02*
Y13094473D01*
Y13105526D02*
Y13110825D01*
X13060000Y13100000D02*
X13015910Y13115910D01*
X13037500Y13100000*
X13015910Y13084090*
X13060000Y13100000*
X13023929Y13090000D02*
X13032287D01*
X13030714Y13105000D02*
X13046144D01*
X13030000Y13089174D02*
Y13094473D01*
Y13105526D02*
Y13110825D01*
X13045000Y13094587D02*
Y13105412D01*
X13060000Y13100000D02*
X13060000D01*
X13000000Y13240000D02*
X13015910Y13284090D01*
X13000000Y13262500*
X12984090Y13284090*
X13000000Y13240000*
X13000000*
X12994587Y13255000D02*
X13005412D01*
X12989174Y13270000D02*
X12994473D01*
X13005526D02*
X13010825D01*
X12985000Y13281568D02*
Y13282855D01*
X13000000Y13240000D02*
Y13262500D01*
X13015000Y13281568D02*
Y13282855D01*
X13000000Y12960000D02*
X12984090Y12915910D01*
X13000000Y12937500*
X13015910Y12915910*
X13000000Y12960000*
X12987370Y12925000D02*
X12990788D01*
X13009211D02*
X13012629D01*
X12992783Y12940000D02*
X13007217D01*
X12998195Y12955000D02*
X13001804D01*
X12985000Y12917144D02*
Y12918431D01*
X13000000Y12937500D02*
Y12960000D01*
X13015000Y12917144D02*
Y12918431D01*
X13100000Y13140000D02*
X13115910Y13184090D01*
X13100000Y13162500*
X13084090Y13184090*
X13100000Y13140000*
X13096391Y13150000D02*
X13103608D01*
X13090978Y13165000D02*
X13098157D01*
X13101842D02*
X13109021D01*
X13085566Y13180000D02*
X13087104D01*
X13112896D02*
X13114434D01*
X13090000Y13167712D02*
Y13176070D01*
X13105000Y13153856D02*
Y13169285D01*
X13100000Y13060000D02*
X13084090Y13015910D01*
X13100000Y13037500*
X13115910Y13015910*
X13100000Y13060000*
X13089174Y13030000D02*
X13094473D01*
X13105526D02*
X13110825D01*
X13094587Y13045000D02*
X13105412D01*
X13100000Y13060000D02*
X13100000D01*
X13090000Y13023929D02*
Y13032287D01*
X13105000Y13030715D02*
Y13046143D01*
X12960000Y13600000D02*
X12915910Y13615910D01*
X12937500Y13600000*
X12915910Y13584090*
X12960000Y13600000*
X12917144Y13585000D02*
X12918431D01*
X12937500Y13600000D02*
X12960000D01*
X12917144Y13615000D02*
X12918431D01*
X12925000Y13587370D02*
Y13590788D01*
Y13609211D02*
Y13612629D01*
X12940000Y13592783D02*
Y13607217D01*
X12955000Y13598195D02*
Y13601804D01*
X12900000Y13540000D02*
X12915910Y13584090D01*
X12900000Y13562500*
X12884090Y13584090*
X12900000Y13540000*
X12900000*
X12894587Y13555000D02*
X12905412D01*
X12889174Y13570000D02*
X12894473D01*
X12905526D02*
X12910825D01*
X12895000Y13553856D02*
Y13569285D01*
X12910000Y13567712D02*
Y13576070D01*
X12900000Y13460000D02*
X12884090Y13415910D01*
X12900000Y13437500*
X12915910Y13415910*
X12900000Y13460000*
X12885566Y13420000D02*
X12887104D01*
X12912896D02*
X12914434D01*
X12890978Y13435000D02*
X12898157D01*
X12901842D02*
X12909021D01*
X12896391Y13450000D02*
X12903608D01*
X12895000Y13430714D02*
Y13446144D01*
X12910000Y13423929D02*
Y13432287D01*
X12800000Y13440000D02*
X12815910Y13484090D01*
X12800000Y13462500*
X12784090Y13484090*
X12800000Y13440000*
X12796391Y13450000D02*
X12803608D01*
X12790978Y13465000D02*
X12798157D01*
X12801842D02*
X12809021D01*
X12785566Y13480000D02*
X12787104D01*
X12812896D02*
X12814434D01*
X12790000Y13467712D02*
Y13476070D01*
X12805000Y13453856D02*
Y13469285D01*
X12800000Y13360000D02*
X12784090Y13315910D01*
X12800000Y13337500*
X12815910Y13315910*
X12800000Y13360000*
X12789174Y13330000D02*
X12794473D01*
X12805526D02*
X12810825D01*
X12794587Y13345000D02*
X12805412D01*
X12800000Y13360000D02*
X12800000D01*
X12790000Y13323929D02*
Y13332287D01*
X12805000Y13330715D02*
Y13346143D01*
X12800000Y13560000D02*
X12784090Y13515910D01*
X12800000Y13537500*
X12815910Y13515910*
X12800000Y13560000*
X12787370Y13525000D02*
X12790788D01*
X12809211D02*
X12812629D01*
X12792783Y13540000D02*
X12807217D01*
X12798195Y13555000D02*
X12801804D01*
X12790000Y13523929D02*
Y13532287D01*
X12805000Y13530715D02*
Y13546143D01*
X12840000Y13600000D02*
X12884090Y13584090D01*
X12862500Y13600000*
X12884090Y13615910*
X12840000Y13600000*
X12881568Y13585000D02*
X12882855D01*
X12840000Y13600000D02*
X12862500D01*
X12881568Y13615000D02*
X12882855D01*
X12850000Y13596391D02*
Y13603608D01*
X12865000Y13590978D02*
Y13598157D01*
Y13601842D02*
Y13609021D01*
X12880000Y13585566D02*
Y13587104D01*
Y13612896D02*
Y13614434D01*
X13100000Y13540000D02*
X13115910Y13584090D01*
X13100000Y13562500*
X13084090Y13584090*
X13100000Y13540000*
X13100000*
X13094587Y13555000D02*
X13105412D01*
X13089174Y13570000D02*
X13094473D01*
X13105526D02*
X13110825D01*
X13090000Y13567712D02*
Y13576070D01*
X13105000Y13553856D02*
Y13569285D01*
X13100000Y13460000D02*
X13084090Y13415910D01*
X13100000Y13437500*
X13115910Y13415910*
X13100000Y13460000*
X13085566Y13420000D02*
X13087104D01*
X13112896D02*
X13114434D01*
X13090978Y13435000D02*
X13098157D01*
X13101842D02*
X13109021D01*
X13096391Y13450000D02*
X13103608D01*
X13090000Y13423929D02*
Y13432287D01*
X13105000Y13430715D02*
Y13446143D01*
X13000000Y13440000D02*
X13015910Y13484090D01*
X13000000Y13462500*
X12984090Y13484090*
X13000000Y13440000*
X12996391Y13450000D02*
X13003608D01*
X12990978Y13465000D02*
X12998157D01*
X13001842D02*
X13009021D01*
X12985566Y13480000D02*
X12987104D01*
X13012896D02*
X13014434D01*
X12985000Y13481568D02*
Y13482855D01*
X13000000Y13440000D02*
Y13462500D01*
X13015000Y13481568D02*
Y13482855D01*
X13000000Y13360000D02*
X12984090Y13315910D01*
X13000000Y13337500*
X13015910Y13315910*
X13000000Y13360000*
X12989174Y13330000D02*
X12994473D01*
X13005526D02*
X13010825D01*
X12994587Y13345000D02*
X13005412D01*
X13000000Y13360000D02*
X13000000D01*
X12985000Y13317144D02*
Y13318431D01*
X13000000Y13337500D02*
Y13360000D01*
X13015000Y13317144D02*
Y13318431D01*
X13100000Y13340000D02*
X13115910Y13384090D01*
X13100000Y13362500*
X13084090Y13384090*
X13100000Y13340000*
X13098195Y13345000D02*
X13101804D01*
X13092783Y13360000D02*
X13107217D01*
X13087370Y13375000D02*
X13090788D01*
X13109211D02*
X13112629D01*
X13090000Y13367712D02*
Y13376070D01*
X13105000Y13353856D02*
Y13369285D01*
X13100000Y13260000D02*
X13084090Y13215910D01*
X13100000Y13237500*
X13115910Y13215910*
X13100000Y13260000*
X13087370Y13225000D02*
X13090788D01*
X13109211D02*
X13112629D01*
X13092783Y13240000D02*
X13107217D01*
X13098195Y13255000D02*
X13101804D01*
X13090000Y13223929D02*
Y13232287D01*
X13105000Y13230715D02*
Y13246143D01*
X13040000Y13600000D02*
X13084090Y13584090D01*
X13062500Y13600000*
X13084090Y13615910*
X13040000Y13600000*
X13081568Y13585000D02*
X13082855D01*
X13040000Y13600000D02*
X13062500D01*
X13081568Y13615000D02*
X13082855D01*
X13045000Y13598195D02*
Y13601804D01*
X13060000Y13592783D02*
Y13607217D01*
X13075000Y13587370D02*
Y13590788D01*
Y13609211D02*
Y13612629D01*
X13000000Y13560000D02*
X12984090Y13515910D01*
X13000000Y13537500*
X13015910Y13515910*
X13000000Y13560000*
X12987370Y13525000D02*
X12990788D01*
X13009211D02*
X13012629D01*
X12992783Y13540000D02*
X13007217D01*
X12998195Y13555000D02*
X13001804D01*
X12985000Y13517144D02*
Y13518431D01*
X13000000Y13537500D02*
Y13560000D01*
X13015000Y13517144D02*
Y13518431D01*
X13146000Y13900000D02*
X13211407Y14034592D01*
X13211407D02*
X13146000Y13992500D01*
X13080592Y14034592*
X13080592D02*
X13146000Y13900000D01*
X13146000*
X13138710Y13915000D02*
X13153289D01*
X13131421Y13930000D02*
X13160579D01*
X13124131Y13945000D02*
X13167868D01*
X13116842Y13960000D02*
X13175158D01*
X13109552Y13975000D02*
X13182447D01*
X13102263Y13990000D02*
X13189737D01*
X13094973Y14005000D02*
X13126576D01*
X13165423D02*
X13197026D01*
X13087684Y14020000D02*
X13103268D01*
X13188732D02*
X13204315D01*
X13090000Y14015234D02*
Y14028538D01*
X13105000Y13984368D02*
Y14018885D01*
X13120000Y13953501D02*
Y14009232D01*
X13135000Y13922635D02*
Y13999578D01*
X13150000Y13908230D02*
Y13995074D01*
X13165000Y13939097D02*
Y14004727D01*
X13180000Y13969963D02*
Y14014380D01*
X13195000Y14000830D02*
Y14024033D01*
X13210000Y14031696D02*
Y14033686D01*
X12450000Y11350000D02*
X12550000D01*
X12450000Y11550000D02*
X12550000D01*
X12450000Y11450000D02*
X12550000D01*
X12285000Y11509500D02*
X12389500D01*
X12430000Y11550000*
X12450000*
X12285000Y11509500D02*
Y11000000D01*
X14000000*
X12550000Y11350000D02*
X12650000D01*
Y11240000*
X13350000*
Y11330000*
X12650000Y11450000D02*
Y11350000D01*
X12550000Y11550000D02*
Y11650000D01*
Y11450000D02*
X12650000D01*
X11850000Y11800000D02*
Y12070000D01*
X12013500Y11850000D02*
X12100000Y11763500D01*
X12285000*
X12013500Y11850000D02*
Y12010000D01*
X12076750Y12073250*
X12550000Y11650000D02*
Y11700000D01*
Y11850000D02*
Y11950000D01*
X12540000Y11763500D02*
X12550000Y11753500D01*
Y11700000*
X12540000Y11763500D02*
X12815000D01*
X12550000Y11750000D02*
Y11700000D01*
Y11850000*
X13470000Y11650000D02*
X14000000D01*
Y11000000*
X10600000Y11946000D02*
X11200000D01*
X11324000Y12070000*
X11450000*
X11870000*
X12073500*
X12076750Y12073250*
X11850000Y12070000D02*
X11870000D01*
X12076750Y12073250D02*
X12100000Y12096500D01*
X12176500*
X12180000Y12100000*
X12450000Y12050000D02*
X12460000D01*
X12450000Y11950000D02*
X12550000D01*
X12320000Y12100000D02*
X12550000D01*
Y12050000*
Y11950000*
X12650000*
X12550000Y12100000D02*
Y12300000D01*
X12815000Y11890500D02*
X13096358D01*
X13098179Y11892321*
X13100000Y12090000D02*
X13395000D01*
X13500000Y12145000*
X13100000Y11900000D02*
Y12090000D01*
X11450000Y12330000D02*
X11850000D01*
X11880000Y12300000*
X12550000*
Y12600000*
X13000000Y12130000D02*
X13100000D01*
Y12090000*
X10600000Y12454000D02*
Y13450000D01*
X11350000Y14200000*
X10600000Y12454000D02*
X11200000D01*
X11346000Y12600000*
X12550000*
Y12800000*
X11850000D02*
Y12330000D01*
X12550000Y12800000D02*
Y12980000D01*
X12670000Y13100000*
X12700000*
X12550000Y12800000D02*
X12900000D01*
X13000000Y12900000*
X12900000Y12800000D02*
X13100000D01*
X12700000Y13100000D02*
X13000000D01*
X13275000*
Y13400000*
X13000000Y13300000D02*
Y12900000D01*
X13100000Y13200000D02*
Y13000000D01*
X13000000Y13600000D02*
X12900000D01*
Y13400000*
X12800000Y13300000D02*
Y13500000D01*
Y13600000*
X12900000*
X13100000D02*
Y13400000D01*
X13000000Y13500000D02*
Y13300000D01*
X13100000Y13400000D02*
Y13200000D01*
Y13600000D02*
X13000000D01*
Y13500000*
X13146000Y14100000D02*
Y13829000D01*
X13275000Y13700000*
Y13400000*
G54D19*
X10445000Y12369142D02*
X10604142Y12210000D01*
X12234142*
X12360000Y12084142*
Y12054142*
X12400000Y12014142*
Y11510000*
X12700000*
Y11704142*
X12730857Y11735000*
X12730857D02*
X12800000D01*
Y11790000*
X12725857*
X12725857D02*
X12700000Y11815857D01*
X12700000D02*
Y12015857D01*
X12700000D02*
X12680000Y12035857D01*
X12680000D02*
Y12304142D01*
X12755857Y12380000*
X12755857D02*
X13055857D01*
X13055857D02*
X13300000Y12624142D01*
Y12954142*
X13320000Y12974142*
Y14225857*
X13320000D02*
X13255857Y14290000D01*
X13255857D02*
X12594142D01*
X12289142Y13985000*
X11485857*
X11485857D02*
X11397500Y14073357D01*
X11397500D02*
Y14230000D01*
X11284142*
X10445000Y13390857*
X10445000D02*
Y12369142D01*
X13459999Y14275857D02*
X13460000Y12985857D01*
X13460000D02*
X13370000Y12895857D01*
X13370000D02*
Y12634142D01*
X13444142Y12560000*
X14025857*
X14025857D02*
X14185000Y12719142D01*
Y13905857*
X14185000D02*
X13800857Y14290000D01*
X13800857D02*
X13474142D01*
X13459999Y14275857*
X12220000Y11520000D02*
Y10944142D01*
X12264142Y10900000*
X14125857*
X14125857D02*
X14185000Y10959142D01*
Y11655857*
X14185000D02*
X14103357Y11737500D01*
X14103357D02*
X13484142D01*
X13450000Y11703357*
X13450000D02*
Y11644142D01*
X13504142Y11590000*
X13859142*
X13940000Y11509142*
Y11315857*
X13940000D02*
X13894142Y11270000D01*
X13545857*
X13545857D02*
X13535857Y11280000D01*
X13535857D02*
X12855857D01*
X12855857D02*
X12700000Y11435857D01*
X12700000D02*
Y11520000D01*
X12220000*
X12290000Y11790000D02*
X12195857D01*
X12195857D02*
X12170000Y11815857D01*
X12170000D02*
Y11974142D01*
X12200000Y12004142*
Y12140000*
X10410000*
Y11184142*
X10684142Y10910000*
X12045857*
X12045857D02*
X12090000Y10954142D01*
Y11664142*
X12165857Y11740000*
X12165857D02*
X12290000D01*
Y11790000*
X12770000Y11920000D02*
X12894142D01*
X12955000Y11980857*
X12955000D02*
Y12150000D01*
X13354142*
X13404142Y12200000*
X13600000*
Y11914142*
X13555857Y11870000*
X13555857D02*
X12770000D01*
Y11920000*
X13304142Y11350000D02*
X13485857D01*
X13485857D02*
X13600000Y11235857D01*
X13600000D02*
Y11180000D01*
X13210000*
Y11255857*
X13210000D02*
X13304142Y11350000D01*
X12514108Y14209966D02*
X13320000D01*
X12496108Y14191966D02*
X13320000D01*
X12478108Y14173966D02*
X13320000D01*
X12460108Y14155966D02*
X13320000D01*
X12442108Y14137966D02*
X13320000D01*
X12424108Y14119966D02*
X13320000D01*
X12406108Y14101966D02*
X13320000D01*
X12388108Y14083966D02*
X13320000D01*
X12370108Y14065966D02*
X13320000D01*
X12352108Y14047966D02*
X13320000D01*
X12334108Y14029966D02*
X13320000D01*
X12316108Y14011966D02*
X13320000D01*
X12298108Y13993966D02*
X13320000D01*
X11030108Y13975966D02*
X13320000D01*
X11012108Y13957966D02*
X13320000D01*
X10994108Y13939966D02*
X13320000D01*
X10976108Y13921966D02*
X13320000D01*
X10958108Y13903966D02*
X13320000D01*
X10940108Y13885966D02*
X13320000D01*
X10922108Y13867966D02*
X13320000D01*
X10904108Y13849966D02*
X13320000D01*
X10886108Y13831966D02*
X13320000D01*
X10868108Y13813966D02*
X13320000D01*
X10850108Y13795966D02*
X13320000D01*
X10832108Y13777966D02*
X13320000D01*
X10814108Y13759966D02*
X13320000D01*
X10796108Y13741966D02*
X13320000D01*
X10778108Y13723966D02*
X13320000D01*
X10760108Y13705966D02*
X13320000D01*
X10742108Y13687966D02*
X13320000D01*
X10724108Y13669966D02*
X13320000D01*
X10706108Y13651966D02*
X13320000D01*
X10688108Y13633966D02*
X13320000D01*
X10670108Y13615966D02*
X13320000D01*
X10652108Y13597966D02*
X13320000D01*
X10634108Y13579966D02*
X13320000D01*
X10616108Y13561966D02*
X13320000D01*
X10598108Y13543966D02*
X13320000D01*
X10580108Y13525966D02*
X13320000D01*
X10562108Y13507966D02*
X13320000D01*
X10544108Y13489966D02*
X13320000D01*
X10526108Y13471966D02*
X13320000D01*
X10508108Y13453966D02*
X13320000D01*
X10490108Y13435966D02*
X13320000D01*
X10472108Y13417966D02*
X13320000D01*
X10454108Y13399966D02*
X13320000D01*
X10445000Y13381966D02*
X13320000D01*
X10445000Y13363966D02*
X13320000D01*
X10445000Y13345966D02*
X13320000D01*
X10445000Y13327966D02*
X13320000D01*
X10445000Y13309966D02*
X13320000D01*
X10445000Y13291966D02*
X13320000D01*
X10445000Y13273966D02*
X13320000D01*
X10445000Y13255966D02*
X13320000D01*
X10445000Y13237966D02*
X13320000D01*
X10445000Y13219966D02*
X13320000D01*
X10445000Y13201966D02*
X13320000D01*
X10445000Y13183966D02*
X13320000D01*
X10445000Y13165966D02*
X13320000D01*
X10445000Y13147966D02*
X13320000D01*
X10445000Y13129966D02*
X13320000D01*
X10445000Y13111966D02*
X13320000D01*
X10445000Y13093966D02*
X13320000D01*
X10445000Y13075966D02*
X13320000D01*
X10445000Y13057966D02*
X13320000D01*
X10445000Y13039966D02*
X13320000D01*
X10445000Y13021966D02*
X13320000D01*
X10445000Y13003966D02*
X13320000D01*
X10445000Y12985966D02*
X13320000D01*
X12532108Y14227966D02*
X13317891D01*
X10445000Y12967966D02*
X13313824D01*
X10445000Y12949966D02*
X13300000D01*
X10445000Y12931966D02*
X13300000D01*
X10445000Y12913966D02*
X13300000D01*
X10445000Y12895966D02*
X13300000D01*
X10445000Y12877966D02*
X13300000D01*
X10445000Y12859966D02*
X13300000D01*
X10445000Y12841966D02*
X13300000D01*
X10445000Y12823966D02*
X13300000D01*
X10445000Y12805966D02*
X13300000D01*
X10445000Y12787966D02*
X13300000D01*
X10445000Y12769966D02*
X13300000D01*
X10445000Y12751966D02*
X13300000D01*
X10445000Y12733966D02*
X13300000D01*
X10445000Y12715966D02*
X13300000D01*
X10445000Y12697966D02*
X13300000D01*
X10445000Y12679966D02*
X13300000D01*
X10445000Y12661966D02*
X13300000D01*
X10445000Y12643966D02*
X13300000D01*
X10445000Y12625966D02*
X13300000D01*
X12550108Y14245966D02*
X13299891D01*
X10445000Y12607966D02*
X13283824D01*
X12568108Y14263966D02*
X13281891D01*
X10445000Y12589966D02*
X13265824D01*
X12586108Y14281966D02*
X13263891D01*
X10445000Y12571966D02*
X13247824D01*
X10445000Y12553966D02*
X13229824D01*
X10445000Y12535966D02*
X13211824D01*
X10445000Y12517966D02*
X13193824D01*
X10445000Y12499966D02*
X13175824D01*
X10445000Y12481966D02*
X13157824D01*
X10445000Y12463966D02*
X13139824D01*
X10445000Y12445966D02*
X13121824D01*
X10445000Y12427966D02*
X13103824D01*
X10445000Y12409966D02*
X13085824D01*
X10445000Y12391966D02*
X13067824D01*
X12400000Y11779966D02*
X12800000D01*
X12400000Y11761966D02*
X12800000D01*
X12400000Y11743966D02*
X12800000D01*
X10445000Y12373966D02*
X12749824D01*
X10458175Y12355966D02*
X12731824D01*
X12400000Y11725966D02*
X12721824D01*
X12400000Y11797966D02*
X12717891D01*
X10476175Y12337966D02*
X12713824D01*
X12400000Y11707966D02*
X12703824D01*
X12400000Y12013966D02*
X12700000D01*
X12400000Y11995966D02*
X12700000D01*
X12400000Y11977966D02*
X12700000D01*
X12400000Y11959966D02*
X12700000D01*
X12400000Y11941966D02*
X12700000D01*
X12400000Y11923966D02*
X12700000D01*
X12400000Y11905966D02*
X12700000D01*
X12400000Y11887966D02*
X12700000D01*
X12400000Y11869966D02*
X12700000D01*
X12400000Y11851966D02*
X12700000D01*
X12400000Y11833966D02*
X12700000D01*
X12400000Y11815966D02*
X12700000D01*
X12400000Y11689966D02*
X12700000D01*
X12400000Y11671966D02*
X12700000D01*
X12400000Y11653966D02*
X12700000D01*
X12400000Y11635966D02*
X12700000D01*
X12400000Y11617966D02*
X12700000D01*
X12400000Y11599966D02*
X12700000D01*
X12400000Y11581966D02*
X12700000D01*
X12400000Y11563966D02*
X12700000D01*
X12400000Y11545966D02*
X12700000D01*
X12400000Y11527966D02*
X12700000D01*
X10494175Y12319966D02*
X12695824D01*
X12382175Y12031966D02*
X12683891D01*
X10512175Y12301966D02*
X12680000D01*
X10530175Y12283966D02*
X12680000D01*
X10548175Y12265966D02*
X12680000D01*
X10566175Y12247966D02*
X12680000D01*
X10584175Y12229966D02*
X12680000D01*
X10602175Y12211966D02*
X12680000D01*
X12250175Y12193966D02*
X12680000D01*
X12268175Y12175966D02*
X12680000D01*
X12286175Y12157966D02*
X12680000D01*
X12304175Y12139966D02*
X12680000D01*
X12322175Y12121966D02*
X12680000D01*
X12340175Y12103966D02*
X12680000D01*
X12358175Y12085966D02*
X12680000D01*
X12360000Y12067966D02*
X12680000D01*
X12364175Y12049966D02*
X12680000D01*
X11048108Y13993966D02*
X11476891D01*
X11066108Y14011966D02*
X11458891D01*
X11084108Y14029966D02*
X11440891D01*
X11102108Y14047966D02*
X11422891D01*
X11120108Y14065966D02*
X11404891D01*
X11282108Y14227966D02*
X11397500D01*
X11264108Y14209966D02*
X11397500D01*
X11246108Y14191966D02*
X11397500D01*
X11228108Y14173966D02*
X11397500D01*
X11210108Y14155966D02*
X11397500D01*
X11192108Y14137966D02*
X11397500D01*
X11174108Y14119966D02*
X11397500D01*
X11156108Y14101966D02*
X11397500D01*
X11138108Y14083966D02*
X11397500D01*
X13459999Y13891966D02*
X14185000D01*
X13459999Y13873966D02*
X14185000D01*
X13459999Y13855966D02*
X14185000D01*
X13459999Y13837966D02*
X14185000D01*
X13459999Y13819966D02*
X14185000D01*
X13459999Y13801966D02*
X14185000D01*
X13459999Y13783966D02*
X14185000D01*
X13459999Y13765966D02*
X14185000D01*
X13459999Y13747966D02*
X14185000D01*
X13459999Y13729966D02*
X14185000D01*
X13459999Y13711966D02*
X14185000D01*
X13459999Y13693966D02*
X14185000D01*
X13459999Y13675966D02*
X14185000D01*
X13459999Y13657966D02*
X14185000D01*
X13459999Y13639966D02*
X14185000D01*
X13460000Y13621966D02*
X14185000D01*
X13460000Y13603966D02*
X14185000D01*
X13460000Y13585966D02*
X14185000D01*
X13460000Y13567966D02*
X14185000D01*
X13460000Y13549966D02*
X14185000D01*
X13460000Y13531966D02*
X14185000D01*
X13460000Y13513966D02*
X14185000D01*
X13460000Y13495966D02*
X14185000D01*
X13460000Y13477966D02*
X14185000D01*
X13460000Y13459966D02*
X14185000D01*
X13460000Y13441966D02*
X14185000D01*
X13460000Y13423966D02*
X14185000D01*
X13460000Y13405966D02*
X14185000D01*
X13460000Y13387966D02*
X14185000D01*
X13460000Y13369966D02*
X14185000D01*
X13460000Y13351966D02*
X14185000D01*
X13460000Y13333966D02*
X14185000D01*
X13460000Y13315966D02*
X14185000D01*
X13460000Y13297966D02*
X14185000D01*
X13460000Y13279966D02*
X14185000D01*
X13460000Y13261966D02*
X14185000D01*
X13460000Y13243966D02*
X14185000D01*
X13460000Y13225966D02*
X14185000D01*
X13460000Y13207966D02*
X14185000D01*
X13460000Y13189966D02*
X14185000D01*
X13460000Y13171966D02*
X14185000D01*
X13460000Y13153966D02*
X14185000D01*
X13460000Y13135966D02*
X14185000D01*
X13460000Y13117966D02*
X14185000D01*
X13460000Y13099966D02*
X14185000D01*
X13460000Y13081966D02*
X14185000D01*
X13460000Y13063966D02*
X14185000D01*
X13460000Y13045966D02*
X14185000D01*
X13460000Y13027966D02*
X14185000D01*
X13460000Y13009966D02*
X14185000D01*
X13460000Y12991966D02*
X14185000D01*
X13448108Y12973966D02*
X14185000D01*
X13430108Y12955966D02*
X14185000D01*
X13412108Y12937966D02*
X14185000D01*
X13394108Y12919966D02*
X14185000D01*
X13376108Y12901966D02*
X14185000D01*
X13370000Y12883966D02*
X14185000D01*
X13370000Y12865966D02*
X14185000D01*
X13370000Y12847966D02*
X14185000D01*
X13370000Y12829966D02*
X14185000D01*
X13370000Y12811966D02*
X14185000D01*
X13370000Y12793966D02*
X14185000D01*
X13370000Y12775966D02*
X14185000D01*
X13370000Y12757966D02*
X14185000D01*
X13370000Y12739966D02*
X14185000D01*
X13370000Y12721966D02*
X14185000D01*
X13459999Y13909966D02*
X14180891D01*
X13370000Y12703966D02*
X14169824D01*
X13459999Y13927966D02*
X14162891D01*
X13370000Y12685966D02*
X14151824D01*
X13459999Y13945966D02*
X14144891D01*
X13370000Y12667966D02*
X14133824D01*
X13459999Y13963966D02*
X14126891D01*
X13370000Y12649966D02*
X14115824D01*
X13459999Y13981966D02*
X14108891D01*
X13372175Y12631966D02*
X14097824D01*
X13459999Y13999966D02*
X14090891D01*
X13390175Y12613966D02*
X14079824D01*
X13459999Y14017966D02*
X14072891D01*
X13408175Y12595966D02*
X14061824D01*
X13459999Y14035966D02*
X14054891D01*
X13426175Y12577966D02*
X14043824D01*
X13459999Y14053966D02*
X14036891D01*
X13459999Y14071966D02*
X14018891D01*
X13459999Y14089966D02*
X14000891D01*
X13459999Y14107966D02*
X13982891D01*
X13459999Y14125966D02*
X13964891D01*
X13459999Y14143966D02*
X13946891D01*
X13459999Y14161966D02*
X13928891D01*
X13459999Y14179966D02*
X13910891D01*
X13459999Y14197966D02*
X13892891D01*
X13459999Y14215966D02*
X13874891D01*
X13459999Y14233966D02*
X13856891D01*
X13459999Y14251966D02*
X13838891D01*
X13459999Y14269966D02*
X13820891D01*
X13472108Y14287966D02*
X13802891D01*
X13456175Y11637966D02*
X14185000D01*
X13474175Y11619966D02*
X14185000D01*
X13492175Y11601966D02*
X14185000D01*
X13865175Y11583966D02*
X14185000D01*
X13883175Y11565966D02*
X14185000D01*
X13901175Y11547966D02*
X14185000D01*
X13919175Y11529966D02*
X14185000D01*
X13937175Y11511966D02*
X14185000D01*
X13940000Y11493966D02*
X14185000D01*
X13940000Y11475966D02*
X14185000D01*
X13940000Y11457966D02*
X14185000D01*
X13940000Y11439966D02*
X14185000D01*
X13940000Y11421966D02*
X14185000D01*
X13940000Y11403966D02*
X14185000D01*
X13940000Y11385966D02*
X14185000D01*
X13940000Y11367966D02*
X14185000D01*
X13940000Y11349966D02*
X14185000D01*
X13940000Y11331966D02*
X14185000D01*
X13938108Y11313966D02*
X14185000D01*
X13920108Y11295966D02*
X14185000D01*
X13902108Y11277966D02*
X14185000D01*
X12220000Y11259966D02*
X14185000D01*
X12220000Y11241966D02*
X14185000D01*
X12220000Y11223966D02*
X14185000D01*
X12220000Y11205966D02*
X14185000D01*
X12220000Y11187966D02*
X14185000D01*
X12220000Y11169966D02*
X14185000D01*
X12220000Y11151966D02*
X14185000D01*
X12220000Y11133966D02*
X14185000D01*
X12220000Y11115966D02*
X14185000D01*
X12220000Y11097966D02*
X14185000D01*
X12220000Y11079966D02*
X14185000D01*
X12220000Y11061966D02*
X14185000D01*
X12220000Y11043966D02*
X14185000D01*
X12220000Y11025966D02*
X14185000D01*
X12220000Y11007966D02*
X14185000D01*
X12220000Y10989966D02*
X14185000D01*
X12220000Y10971966D02*
X14185000D01*
X13450000Y11655966D02*
X14184891D01*
X12220000Y10953966D02*
X14179824D01*
X13450000Y11673966D02*
X14166891D01*
X12228175Y10935966D02*
X14161824D01*
X13450000Y11691966D02*
X14148891D01*
X12246175Y10917966D02*
X14143824D01*
X13456608Y11709966D02*
X14130891D01*
X13474608Y11727966D02*
X14112891D01*
X12220000Y11277966D02*
X13537891D01*
X12220000Y11295966D02*
X12839891D01*
X12220000Y11313966D02*
X12821891D01*
X12220000Y11331966D02*
X12803891D01*
X12220000Y11349966D02*
X12785891D01*
X12220000Y11367966D02*
X12767891D01*
X12220000Y11385966D02*
X12749891D01*
X12220000Y11403966D02*
X12731891D01*
X12220000Y11421966D02*
X12713891D01*
X12220000Y11511966D02*
X12700000D01*
X12220000Y11493966D02*
X12700000D01*
X12220000Y11475966D02*
X12700000D01*
X12220000Y11457966D02*
X12700000D01*
X12220000Y11439966D02*
X12700000D01*
X10410000Y11773966D02*
X12290000D01*
X10410000Y11755966D02*
X12290000D01*
X10410000Y12133966D02*
X12200000D01*
X10410000Y12115966D02*
X12200000D01*
X10410000Y12097966D02*
X12200000D01*
X10410000Y12079966D02*
X12200000D01*
X10410000Y12061966D02*
X12200000D01*
X10410000Y12043966D02*
X12200000D01*
X10410000Y12025966D02*
X12200000D01*
X10410000Y12007966D02*
X12200000D01*
X10410000Y11791966D02*
X12193891D01*
X10410000Y11989966D02*
X12185824D01*
X10410000Y11809966D02*
X12175891D01*
X10410000Y11971966D02*
X12170000D01*
X10410000Y11953966D02*
X12170000D01*
X10410000Y11935966D02*
X12170000D01*
X10410000Y11917966D02*
X12170000D01*
X10410000Y11899966D02*
X12170000D01*
X10410000Y11881966D02*
X12170000D01*
X10410000Y11863966D02*
X12170000D01*
X10410000Y11845966D02*
X12170000D01*
X10410000Y11827966D02*
X12170000D01*
X10410000Y11737966D02*
X12163824D01*
X10410000Y11719966D02*
X12145824D01*
X10410000Y11701966D02*
X12127824D01*
X10410000Y11683966D02*
X12109824D01*
X10410000Y11665966D02*
X12091824D01*
X10410000Y11647966D02*
X12090000D01*
X10410000Y11629966D02*
X12090000D01*
X10410000Y11611966D02*
X12090000D01*
X10410000Y11593966D02*
X12090000D01*
X10410000Y11575966D02*
X12090000D01*
X10410000Y11557966D02*
X12090000D01*
X10410000Y11539966D02*
X12090000D01*
X10410000Y11521966D02*
X12090000D01*
X10410000Y11503966D02*
X12090000D01*
X10410000Y11485966D02*
X12090000D01*
X10410000Y11467966D02*
X12090000D01*
X10410000Y11449966D02*
X12090000D01*
X10410000Y11431966D02*
X12090000D01*
X10410000Y11413966D02*
X12090000D01*
X10410000Y11395966D02*
X12090000D01*
X10410000Y11377966D02*
X12090000D01*
X10410000Y11359966D02*
X12090000D01*
X10410000Y11341966D02*
X12090000D01*
X10410000Y11323966D02*
X12090000D01*
X10410000Y11305966D02*
X12090000D01*
X10410000Y11287966D02*
X12090000D01*
X10410000Y11269966D02*
X12090000D01*
X10410000Y11251966D02*
X12090000D01*
X10410000Y11233966D02*
X12090000D01*
X10410000Y11215966D02*
X12090000D01*
X10410000Y11197966D02*
X12090000D01*
X10414175Y11179966D02*
X12090000D01*
X10432175Y11161966D02*
X12090000D01*
X10450175Y11143966D02*
X12090000D01*
X10468175Y11125966D02*
X12090000D01*
X10486175Y11107966D02*
X12090000D01*
X10504175Y11089966D02*
X12090000D01*
X10522175Y11071966D02*
X12090000D01*
X10540175Y11053966D02*
X12090000D01*
X10558175Y11035966D02*
X12090000D01*
X10576175Y11017966D02*
X12090000D01*
X10594175Y10999966D02*
X12090000D01*
X10612175Y10981966D02*
X12090000D01*
X10630175Y10963966D02*
X12090000D01*
X10648175Y10945966D02*
X12081824D01*
X10666175Y10927966D02*
X12063824D01*
X13398108Y12193966D02*
X13600000D01*
X13380108Y12175966D02*
X13600000D01*
X13362108Y12157966D02*
X13600000D01*
X12955000Y12139966D02*
X13600000D01*
X12955000Y12121966D02*
X13600000D01*
X12955000Y12103966D02*
X13600000D01*
X12955000Y12085966D02*
X13600000D01*
X12955000Y12067966D02*
X13600000D01*
X12955000Y12049966D02*
X13600000D01*
X12955000Y12031966D02*
X13600000D01*
X12955000Y12013966D02*
X13600000D01*
X12955000Y11995966D02*
X13600000D01*
X12952108Y11977966D02*
X13600000D01*
X12934108Y11959966D02*
X13600000D01*
X12916108Y11941966D02*
X13600000D01*
X12898108Y11923966D02*
X13600000D01*
X12770000Y11905966D02*
X13591824D01*
X12770000Y11887966D02*
X13573824D01*
X13210000Y11233966D02*
X13600000D01*
X13210000Y11215966D02*
X13600000D01*
X13210000Y11197966D02*
X13600000D01*
X13210000Y11251966D02*
X13583891D01*
X13224108Y11269966D02*
X13565891D01*
X13242108Y11287966D02*
X13547891D01*
X13260108Y11305966D02*
X13529891D01*
X13278108Y11323966D02*
X13511891D01*
X13296108Y11341966D02*
X13493891D01*
X8999999Y31600000D02*
G75*
G03X8999999I-199999D01*
G01X8550000D02*
X9050000D01*
X8800000Y31850000D02*
Y31350000D01*
X39799999Y8400000D02*
G03X39799999I-199999D01*
G01X39350000D02*
X39850000D01*
X39600000Y8650000D02*
Y8150000D01*
X40399999Y8400000D02*
G03X40399999I-199999D01*
G01X39950000D02*
X40450000D01*
X40200000Y8650000D02*
Y8150000D01*
G54D20*
X12450000Y11350000D03*
Y11550000D03*
Y11450000D03*
X12550000Y11350000D03*
X12650000D03*
Y11450000D03*
X12550000Y11550000D03*
Y11450000D03*
X12650000Y11550000D03*
X13870000Y11430000D03*
X12165000Y11635000D03*
X12450000Y11650000D03*
Y11750000D03*
Y11850000D03*
X12550000Y11750000D03*
Y11650000D03*
Y11850000D03*
X12650000Y11650000D03*
Y11750000D03*
Y11850000D03*
X12450000Y12050000D03*
Y11950000D03*
X12290000Y11970000D03*
X12650000Y12050000D03*
Y11950000D03*
X12550000Y12050000D03*
Y11950000D03*
X12750000Y12130000D03*
X12900000Y12800000D03*
X13100000D03*
X12800000Y12900000D03*
X12900000Y13000000D03*
X13000000Y13100000D03*
X13100000Y13000000D03*
X13000000Y12900000D03*
X12900000Y13200000D03*
X12800000Y13300000D03*
X13000000D03*
X13100000Y13200000D03*
X12900000Y13600000D03*
X12800000Y13500000D03*
X12900000Y13400000D03*
X13100000Y13600000D03*
X13000000Y13500000D03*
X13100000Y13400000D03*
X13520000Y13550000D03*
G54D22*
X13654000Y14100000D03*
X13146000D03*
X10600000Y12454000D03*
Y11946000D03*
G54D23*
X13022319Y11477680D02*
X13036718Y11414849D01*
X13036718D02*
X13032824Y11467175D01*
X13032824D02*
X13085150Y11463281D01*
X13085150D02*
X13022319Y11477680D01*
X13030955Y11440000D02*
X13034847D01*
X13024079Y11470000D02*
X13055833D01*
X13030000Y11444167D02*
Y11475920D01*
X13060000Y11465152D02*
Y11469045D01*
X13815000Y11430000D02*
X13859393Y11419393D01*
X13859393D02*
X13825000Y11430000D01*
X13859393Y11440606*
X13859393D02*
X13815000Y11430000D01*
X13856854Y11440000D02*
X13857426D01*
X13840000Y11424026D02*
Y11425374D01*
Y11434625D02*
Y11435973D01*
X12805000Y12130000D02*
X12760606Y12140606D01*
X12760606D02*
X12795000Y12130000D01*
X12760606Y12119393*
X12760606D02*
X12805000Y12130000D01*
X12795000D02*
X12805000D01*
X12790000Y12126416D02*
Y12128458D01*
Y12131541D02*
Y12133583D01*
X13640000Y13100000D02*
X13754038Y13054038D01*
X13705000Y13100000*
X13754038Y13145962*
X13640000Y13100000*
X13739245Y13060000D02*
X13747677D01*
X13664811Y13090000D02*
X13715669D01*
X13689622Y13120000D02*
X13726338D01*
X13660000Y13091939D02*
Y13108060D01*
X13690000Y13079848D02*
Y13120152D01*
X13720000Y13067756D02*
Y13085940D01*
Y13114059D02*
Y13132243D01*
X13750000Y13055665D02*
Y13057822D01*
Y13142177D02*
Y13144334D01*
X12870000Y11489250D02*
X12919500Y11509500D01*
X12870000Y11529750*
X12919500Y11509500D02*
X12870000D01*
X12815000D02*
X12990500D01*
X13100000Y11400000*
X13121686Y11461275D02*
X13159750Y11459750D01*
X13159750D02*
X13161275Y11421686D01*
X13140598Y11450761D02*
X13159750Y11459750D01*
X13159750D02*
X13150761Y11440598D01*
X13320000Y11488000D02*
X13293000Y11470000D01*
X13320000Y11452000*
X13293000Y11470000D02*
X13320000D01*
X13100000Y11400000D02*
X13170000Y11470000D01*
X13350000*
X13358711Y11473350*
X13358711D02*
X13503350D01*
X13503350D02*
X13530000Y11500000D01*
X13630000*
Y11350000D02*
Y11500000D01*
X13770000D02*
Y11430000D01*
X13870000*
X13770000Y11350000D02*
Y11430000D01*
X12165000Y11635000D02*
Y11636500D01*
X12285000*
X12870000Y11616250D02*
X12919500Y11636500D01*
X12870000Y11656750*
X12919500Y11636500D02*
X12870000D01*
X13010000Y11623000D02*
X12983000Y11650000D01*
X13010000Y11677000*
X12983000Y11650000D02*
X13010000D01*
X12815000Y11636500D02*
X12940000D01*
X12953500Y11650000*
X13030000*
X13190000Y11623000D02*
X13217000Y11650000D01*
X13190000Y11677000*
X13217000Y11650000D02*
X13190000D01*
X13310000Y11677000D02*
X13283000Y11650000D01*
X13310000Y11623000*
X13283000Y11650000D02*
X13310000D01*
X13170000D02*
X13330000D01*
X12285000Y11890500D02*
X12290000Y11895500D01*
Y11970000*
X12850000Y12270000D02*
X13000000D01*
X12750000Y12130000D02*
X12850000D01*
X13500000Y12755000D02*
X13520000Y12825000D01*
Y13095000*
X13525000Y13100000*
X13800000*
X13525000D02*
Y13400000D01*
Y13600000*
X13650000Y13725000*
Y14050000*
X13654000Y14100000*
G54D36*
X13770000Y11350000D03*
X13630000D03*
X13030000Y11650000D03*
X13170000D03*
X12180000Y12100000D03*
X12320000D03*
X13630000Y11500000D03*
X13770000D03*
X13470000Y11650000D03*
X13330000D03*
G54D45*
X13525000Y13100000D03*
X13275000D03*
X13525000Y13400000D03*
X13275000D03*
G54D46*
X13500000Y12145000D03*
Y12755000D03*
G54D47*
X12285000Y11890500D03*
Y11763500D03*
Y11636500D03*
Y11509500D03*
X12815000D03*
Y11636500D03*
Y11763500D03*
Y11890500D03*
G54D48*
X12550000Y11700000D03*
G54D49*
X10458578Y12087421D02*
X10525000Y11946000D01*
X10511611Y12034388*
X10511611D02*
X10600000Y12021000D01*
X10458578Y12087421*
X10523121Y11950000D02*
X10524394D01*
X10499637Y12000000D02*
X10516820D01*
X10476154Y12050000D02*
X10538254D01*
X10500000Y11999229D02*
Y12067967D01*
X10550000Y12028573D02*
Y12044483D01*
X10600000Y12021000D02*
X10600000D01*
X10280000Y13385000D02*
Y12266000D01*
X10600000Y11946000*
X11894656Y14247231D02*
X11850000Y14352750D01*
X11805343Y14247231*
X11862551Y14263776D02*
X11850000Y14352750D01*
X11837448Y14263776*
X10280000Y13385000D02*
X11315000Y14420000D01*
X11790000*
X11850000Y14360000*
Y14200000*
G74*
X0Y0D02*
M02*
