*
*
G04 PADS Layout (Build Number 2004.211.1) generated Gerber (RS-274-X) file*
G04 PC Version=2.1*
*
%IN "BD9E300EFJ-EVK-004.pcb"*%
*
%MOMM*%
*
%FSLAX35Y35*%
*
*
*
*
G04 PC Standard Apertures*
*
*
G04 Thermal Relief Aperture macro.*
%AMTER*
1,1,$1,0,0*
1,0,$1-$2,0,0*
21,0,$3,$4,0,0,45*
21,0,$3,$4,0,0,135*
%
*
*
G04 Annular Aperture macro.*
%AMANN*
1,1,$1,0,0*
1,0,$2,0,0*
%
*
*
G04 Odd Aperture macro.*
%AMODD*
1,1,$1,0,0*
1,0,$1-0.005,0,0*
%
*
*
G04 PC Custom Aperture Macros*
*
*
*
*
*
*
G04 PC Aperture Table*
*
%ADD014C,1.8*%
%ADD017C,3.3*%
%ADD018C,0.15*%
%ADD019C,0.2*%
%ADD020C,0.6*%
%ADD021C,0.1*%
%ADD022C,2*%
%ADD023C,0.3*%
%ADD024C,0.254*%
%ADD050O,2.5X3*%
%ADD051O,3X2.5*%
*
*
*
*
G04 PC Custom Flashes*
G04 Layer Name BD9E300EFJ-EVK-004.pcb - flashes*
%LPD*%
*
*
G04 PC Circuitry*
G04 Layer Name BD9E300EFJ-EVK-004.pcb - circuitry*
%LPD*%
*
G54D14*
G01X11850000Y14200000D03*
X11600000D03*
X11350000D03*
G54D17*
X10500000Y10500000D03*
X14500000D03*
X10500000Y14500000D03*
X14500000D03*
G54D18*
X12450000Y11610000D02*
X12434090Y11565910D01*
X12450000Y11587500*
X12465910Y11565910*
X12450000Y11610000*
X12437370Y11575000D02*
X12440788D01*
X12459211D02*
X12462629D01*
X12442783Y11590000D02*
X12457217D01*
X12448195Y11605000D02*
X12451804D01*
X12445000Y11580714D02*
Y11596144D01*
X12460000Y11573929D02*
Y11582287D01*
X12450000Y11590000D02*
X12465910Y11634090D01*
X12450000Y11612500*
X12434090Y11634090*
X12450000Y11590000*
X12450000*
X12444587Y11605000D02*
X12455412D01*
X12439174Y11620000D02*
X12444473D01*
X12455526D02*
X12460825D01*
X12445000Y11603856D02*
Y11619285D01*
X12460000Y11617712D02*
Y11626070D01*
X12610000Y11550000D02*
X12565910Y11565910D01*
X12587500Y11550000*
X12565910Y11534090*
X12610000Y11550000*
X12580715Y11545000D02*
X12596143D01*
X12573929Y11560000D02*
X12582287D01*
X12580000Y11539174D02*
Y11544473D01*
Y11555526D02*
Y11560825D01*
X12595000Y11544587D02*
Y11555412D01*
X12610000Y11550000D02*
X12610000D01*
X12590000D02*
X12634090Y11534090D01*
X12612500Y11550000*
X12634090Y11565910*
X12590000Y11550000*
X12603856Y11545000D02*
X12619285D01*
X12617712Y11560000D02*
X12626070D01*
X12595000Y11548195D02*
Y11551804D01*
X12610000Y11542783D02*
Y11557217D01*
X12625000Y11537370D02*
Y11540788D01*
Y11559211D02*
Y11562629D01*
X12650000Y11610000D02*
X12634090Y11565910D01*
X12650000Y11587500*
X12665910Y11565910*
X12650000Y11610000*
X12637370Y11575000D02*
X12640788D01*
X12659211D02*
X12662629D01*
X12642783Y11590000D02*
X12657217D01*
X12648195Y11605000D02*
X12651804D01*
X12640000Y11573929D02*
Y11582287D01*
X12655000Y11580715D02*
Y11596143D01*
X12650000Y11590000D02*
X12665910Y11634090D01*
X12650000Y11612500*
X12634090Y11634090*
X12650000Y11590000*
X12650000*
X12644587Y11605000D02*
X12655412D01*
X12639174Y11620000D02*
X12644473D01*
X12655526D02*
X12660825D01*
X12640000Y11617712D02*
Y11626070D01*
X12655000Y11603856D02*
Y11619285D01*
X12450000Y11710000D02*
X12434090Y11665910D01*
X12450000Y11687500*
X12465910Y11665910*
X12450000Y11710000*
X12439174Y11680000D02*
X12444473D01*
X12455526D02*
X12460825D01*
X12444587Y11695000D02*
X12455412D01*
X12450000Y11710000D02*
X12450000D01*
X12445000Y11680714D02*
Y11696144D01*
X12460000Y11673929D02*
Y11682287D01*
X12450000Y11690000D02*
X12465910Y11734090D01*
X12450000Y11712500*
X12434090Y11734090*
X12450000Y11690000*
X12448195Y11695000D02*
X12451804D01*
X12442783Y11710000D02*
X12457217D01*
X12437370Y11725000D02*
X12440788D01*
X12459211D02*
X12462629D01*
X12445000Y11703856D02*
Y11719285D01*
X12460000Y11717712D02*
Y11726070D01*
X12450000Y11810000D02*
X12434090Y11765910D01*
X12450000Y11787500*
X12465910Y11765910*
X12450000Y11810000*
X12435566Y11770000D02*
X12437104D01*
X12462896D02*
X12464434D01*
X12440978Y11785000D02*
X12448157D01*
X12451842D02*
X12459021D01*
X12446391Y11800000D02*
X12453608D01*
X12445000Y11780714D02*
Y11796144D01*
X12460000Y11773929D02*
Y11782287D01*
X12450000Y11790000D02*
X12465910Y11834090D01*
X12450000Y11812500*
X12434090Y11834090*
X12450000Y11790000*
X12446391Y11800000D02*
X12453608D01*
X12440978Y11815000D02*
X12448157D01*
X12451842D02*
X12459021D01*
X12435566Y11830000D02*
X12437104D01*
X12462896D02*
X12464434D01*
X12445000Y11803856D02*
Y11819285D01*
X12460000Y11817712D02*
Y11826070D01*
X12510000Y11850000D02*
X12465910Y11865910D01*
X12487500Y11850000*
X12465910Y11834090*
X12510000Y11850000*
X12480715Y11845000D02*
X12496143D01*
X12473929Y11860000D02*
X12482287D01*
X12475000Y11837370D02*
Y11840788D01*
Y11859211D02*
Y11862629D01*
X12490000Y11842783D02*
Y11857217D01*
X12505000Y11848195D02*
Y11851804D01*
X12590000Y11850000D02*
X12634090Y11834090D01*
X12612500Y11850000*
X12634090Y11865910*
X12590000Y11850000*
X12603856Y11845000D02*
X12619285D01*
X12617712Y11860000D02*
X12626070D01*
X12595000Y11848195D02*
Y11851804D01*
X12610000Y11842783D02*
Y11857217D01*
X12625000Y11837370D02*
Y11840788D01*
Y11859211D02*
Y11862629D01*
X12650000Y11710000D02*
X12634090Y11665910D01*
X12650000Y11687500*
X12665910Y11665910*
X12650000Y11710000*
X12639174Y11680000D02*
X12644473D01*
X12655526D02*
X12660825D01*
X12644587Y11695000D02*
X12655412D01*
X12650000Y11710000D02*
X12650000D01*
X12640000Y11673929D02*
Y11682287D01*
X12655000Y11680715D02*
Y11696143D01*
X12650000Y11690000D02*
X12665910Y11734090D01*
X12650000Y11712500*
X12634090Y11734090*
X12650000Y11690000*
X12648195Y11695000D02*
X12651804D01*
X12642783Y11710000D02*
X12657217D01*
X12637370Y11725000D02*
X12640788D01*
X12659211D02*
X12662629D01*
X12640000Y11717712D02*
Y11726070D01*
X12655000Y11703856D02*
Y11719285D01*
X12650000Y11810000D02*
X12634090Y11765910D01*
X12650000Y11787500*
X12665910Y11765910*
X12650000Y11810000*
X12635566Y11770000D02*
X12637104D01*
X12662896D02*
X12664434D01*
X12640978Y11785000D02*
X12648157D01*
X12651842D02*
X12659021D01*
X12646391Y11800000D02*
X12653608D01*
X12640000Y11773929D02*
Y11782287D01*
X12655000Y11780715D02*
Y11796143D01*
X12650000Y11790000D02*
X12665910Y11834090D01*
X12650000Y11812500*
X12634090Y11834090*
X12650000Y11790000*
X12646391Y11800000D02*
X12653608D01*
X12640978Y11815000D02*
X12648157D01*
X12651842D02*
X12659021D01*
X12635566Y11830000D02*
X12637104D01*
X12662896D02*
X12664434D01*
X12640000Y11817712D02*
Y11826070D01*
X12655000Y11803856D02*
Y11819285D01*
X13100000Y12860000D02*
X13084090Y12815910D01*
X13100000Y12837500*
X13115910Y12815910*
X13100000Y12860000*
X13085566Y12820000D02*
X13087104D01*
X13112896D02*
X13114434D01*
X13090978Y12835000D02*
X13098157D01*
X13101842D02*
X13109021D01*
X13096391Y12850000D02*
X13103608D01*
X13090000Y12823929D02*
Y12832287D01*
X13105000Y12830715D02*
Y12846143D01*
X13100000Y12940000D02*
X13115910Y12984090D01*
X13100000Y12962500*
X13084090Y12984090*
X13100000Y12940000*
X13100000*
X13094587Y12955000D02*
X13105412D01*
X13089174Y12970000D02*
X13094473D01*
X13105526D02*
X13110825D01*
X13090000Y12967712D02*
Y12976070D01*
X13105000Y12953856D02*
Y12969285D01*
X13000000Y13160000D02*
X12984090Y13115910D01*
X13000000Y13137500*
X13015910Y13115910*
X13000000Y13160000*
X12985566Y13120000D02*
X12987104D01*
X13012896D02*
X13014434D01*
X12990978Y13135000D02*
X12998157D01*
X13001842D02*
X13009021D01*
X12996391Y13150000D02*
X13003608D01*
X12985000Y13117144D02*
Y13118431D01*
X13000000Y13137500D02*
Y13160000D01*
X13015000Y13117144D02*
Y13118431D01*
X13000000Y13240000D02*
X13015910Y13284090D01*
X13000000Y13262500*
X12984090Y13284090*
X13000000Y13240000*
X13000000*
X12994587Y13255000D02*
X13005412D01*
X12989174Y13270000D02*
X12994473D01*
X13005526D02*
X13010825D01*
X12985000Y13281568D02*
Y13282855D01*
X13000000Y13240000D02*
Y13262500D01*
X13015000Y13281568D02*
Y13282855D01*
X13100000Y13060000D02*
X13084090Y13015910D01*
X13100000Y13037500*
X13115910Y13015910*
X13100000Y13060000*
X13089174Y13030000D02*
X13094473D01*
X13105526D02*
X13110825D01*
X13094587Y13045000D02*
X13105412D01*
X13100000Y13060000D02*
X13100000D01*
X13090000Y13023929D02*
Y13032287D01*
X13105000Y13030715D02*
Y13046143D01*
X13100000Y13140000D02*
X13115910Y13184090D01*
X13100000Y13162500*
X13084090Y13184090*
X13100000Y13140000*
X13096391Y13150000D02*
X13103608D01*
X13090978Y13165000D02*
X13098157D01*
X13101842D02*
X13109021D01*
X13085566Y13180000D02*
X13087104D01*
X13112896D02*
X13114434D01*
X13090000Y13167712D02*
Y13176070D01*
X13105000Y13153856D02*
Y13169285D01*
X13000000Y12960000D02*
X12984090Y12915910D01*
X13000000Y12937500*
X13015910Y12915910*
X13000000Y12960000*
X12987370Y12925000D02*
X12990788D01*
X13009211D02*
X13012629D01*
X12992783Y12940000D02*
X13007217D01*
X12998195Y12955000D02*
X13001804D01*
X12985000Y12917144D02*
Y12918431D01*
X13000000Y12937500D02*
Y12960000D01*
X13015000Y12917144D02*
Y12918431D01*
X13000000Y13040000D02*
X13015910Y13084090D01*
X13000000Y13062500*
X12984090Y13084090*
X13000000Y13040000*
X12998195Y13045000D02*
X13001804D01*
X12992783Y13060000D02*
X13007217D01*
X12987370Y13075000D02*
X12990788D01*
X13009211D02*
X13012629D01*
X12985000Y13081568D02*
Y13082855D01*
X13000000Y13040000D02*
Y13062500D01*
X13015000Y13081568D02*
Y13082855D01*
X12900000Y13340000D02*
X12915910Y13384090D01*
X12900000Y13362500*
X12884090Y13384090*
X12900000Y13340000*
X12898195Y13345000D02*
X12901804D01*
X12892783Y13360000D02*
X12907217D01*
X12887370Y13375000D02*
X12890788D01*
X12909211D02*
X12912629D01*
X12895000Y13353856D02*
Y13369285D01*
X12910000Y13367712D02*
Y13376070D01*
X12860000Y13300000D02*
X12815910Y13315910D01*
X12837500Y13300000*
X12815910Y13284090*
X12860000Y13300000*
X12817144Y13285000D02*
X12818431D01*
X12837500Y13300000D02*
X12860000D01*
X12817144Y13315000D02*
X12818431D01*
X12820000Y13285566D02*
Y13287104D01*
Y13312896D02*
Y13314434D01*
X12835000Y13290978D02*
Y13298157D01*
Y13301842D02*
Y13309021D01*
X12850000Y13296391D02*
Y13303608D01*
X12800000Y13360000D02*
X12784090Y13315910D01*
X12800000Y13337500*
X12815910Y13315910*
X12800000Y13360000*
X12789174Y13330000D02*
X12794473D01*
X12805526D02*
X12810825D01*
X12794587Y13345000D02*
X12805412D01*
X12800000Y13360000D02*
X12800000D01*
X12790000Y13323929D02*
Y13332287D01*
X12805000Y13330715D02*
Y13346143D01*
X12800000Y13440000D02*
X12815910Y13484090D01*
X12800000Y13462500*
X12784090Y13484090*
X12800000Y13440000*
X12796391Y13450000D02*
X12803608D01*
X12790978Y13465000D02*
X12798157D01*
X12801842D02*
X12809021D01*
X12785566Y13480000D02*
X12787104D01*
X12812896D02*
X12814434D01*
X12790000Y13467712D02*
Y13476070D01*
X12805000Y13453856D02*
Y13469285D01*
X13000000Y13360000D02*
X12984090Y13315910D01*
X13000000Y13337500*
X13015910Y13315910*
X13000000Y13360000*
X12989174Y13330000D02*
X12994473D01*
X13005526D02*
X13010825D01*
X12994587Y13345000D02*
X13005412D01*
X13000000Y13360000D02*
X13000000D01*
X12985000Y13317144D02*
Y13318431D01*
X13000000Y13337500D02*
Y13360000D01*
X13015000Y13317144D02*
Y13318431D01*
X13000000Y13440000D02*
X13015910Y13484090D01*
X13000000Y13462500*
X12984090Y13484090*
X13000000Y13440000*
X12996391Y13450000D02*
X13003608D01*
X12990978Y13465000D02*
X12998157D01*
X13001842D02*
X13009021D01*
X12985566Y13480000D02*
X12987104D01*
X13012896D02*
X13014434D01*
X12985000Y13481568D02*
Y13482855D01*
X13000000Y13440000D02*
Y13462500D01*
X13015000Y13481568D02*
Y13482855D01*
X12940000Y13300000D02*
X12984090Y13284090D01*
X12962500Y13300000*
X12984090Y13315910*
X12940000Y13300000*
X12981568Y13285000D02*
X12982855D01*
X12940000Y13300000D02*
X12962500D01*
X12981568Y13315000D02*
X12982855D01*
X12940000Y13300000D02*
X12940000D01*
X12955000Y13294587D02*
Y13305412D01*
X12970000Y13289174D02*
Y13294473D01*
Y13305526D02*
Y13310825D01*
X13100000Y13260000D02*
X13084090Y13215910D01*
X13100000Y13237500*
X13115910Y13215910*
X13100000Y13260000*
X13087370Y13225000D02*
X13090788D01*
X13109211D02*
X13112629D01*
X13092783Y13240000D02*
X13107217D01*
X13098195Y13255000D02*
X13101804D01*
X13090000Y13223929D02*
Y13232287D01*
X13105000Y13230715D02*
Y13246143D01*
X13100000Y13340000D02*
X13115910Y13384090D01*
X13100000Y13362500*
X13084090Y13384090*
X13100000Y13340000*
X13098195Y13345000D02*
X13101804D01*
X13092783Y13360000D02*
X13107217D01*
X13087370Y13375000D02*
X13090788D01*
X13109211D02*
X13112629D01*
X13090000Y13367712D02*
Y13376070D01*
X13105000Y13353856D02*
Y13369285D01*
X12800000Y13560000D02*
X12784090Y13515910D01*
X12800000Y13537500*
X12815910Y13515910*
X12800000Y13560000*
X12787370Y13525000D02*
X12790788D01*
X12809211D02*
X12812629D01*
X12792783Y13540000D02*
X12807217D01*
X12798195Y13555000D02*
X12801804D01*
X12790000Y13523929D02*
Y13532287D01*
X12805000Y13530715D02*
Y13546143D01*
X12840000Y13600000D02*
X12884090Y13584090D01*
X12862500Y13600000*
X12884090Y13615910*
X12840000Y13600000*
X12881568Y13585000D02*
X12882855D01*
X12840000Y13600000D02*
X12862500D01*
X12881568Y13615000D02*
X12882855D01*
X12850000Y13596391D02*
Y13603608D01*
X12865000Y13590978D02*
Y13598157D01*
Y13601842D02*
Y13609021D01*
X12880000Y13585566D02*
Y13587104D01*
Y13612896D02*
Y13614434D01*
X12900000Y13460000D02*
X12884090Y13415910D01*
X12900000Y13437500*
X12915910Y13415910*
X12900000Y13460000*
X12885566Y13420000D02*
X12887104D01*
X12912896D02*
X12914434D01*
X12890978Y13435000D02*
X12898157D01*
X12901842D02*
X12909021D01*
X12896391Y13450000D02*
X12903608D01*
X12895000Y13430714D02*
Y13446144D01*
X12910000Y13423929D02*
Y13432287D01*
X12900000Y13540000D02*
X12915910Y13584090D01*
X12900000Y13562500*
X12884090Y13584090*
X12900000Y13540000*
X12900000*
X12894587Y13555000D02*
X12905412D01*
X12889174Y13570000D02*
X12894473D01*
X12905526D02*
X12910825D01*
X12895000Y13553856D02*
Y13569285D01*
X12910000Y13567712D02*
Y13576070D01*
X12960000Y13600000D02*
X12915910Y13615910D01*
X12937500Y13600000*
X12915910Y13584090*
X12960000Y13600000*
X12917144Y13585000D02*
X12918431D01*
X12937500Y13600000D02*
X12960000D01*
X12917144Y13615000D02*
X12918431D01*
X12925000Y13587370D02*
Y13590788D01*
Y13609211D02*
Y13612629D01*
X12940000Y13592783D02*
Y13607217D01*
X12955000Y13598195D02*
Y13601804D01*
X13040000Y13600000D02*
X13084090Y13584090D01*
X13062500Y13600000*
X13084090Y13615910*
X13040000Y13600000*
X13081568Y13585000D02*
X13082855D01*
X13040000Y13600000D02*
X13062500D01*
X13081568Y13615000D02*
X13082855D01*
X13045000Y13598195D02*
Y13601804D01*
X13060000Y13592783D02*
Y13607217D01*
X13075000Y13587370D02*
Y13590788D01*
Y13609211D02*
Y13612629D01*
X13000000Y13560000D02*
X12984090Y13515910D01*
X13000000Y13537500*
X13015910Y13515910*
X13000000Y13560000*
X12987370Y13525000D02*
X12990788D01*
X13009211D02*
X13012629D01*
X12992783Y13540000D02*
X13007217D01*
X12998195Y13555000D02*
X13001804D01*
X12985000Y13517144D02*
Y13518431D01*
X13000000Y13537500D02*
Y13560000D01*
X13015000Y13517144D02*
Y13518431D01*
X13100000Y13460000D02*
X13084090Y13415910D01*
X13100000Y13437500*
X13115910Y13415910*
X13100000Y13460000*
X13085566Y13420000D02*
X13087104D01*
X13112896D02*
X13114434D01*
X13090978Y13435000D02*
X13098157D01*
X13101842D02*
X13109021D01*
X13096391Y13450000D02*
X13103608D01*
X13090000Y13423929D02*
Y13432287D01*
X13105000Y13430715D02*
Y13446143D01*
X13100000Y13540000D02*
X13115910Y13584090D01*
X13100000Y13562500*
X13084090Y13584090*
X13100000Y13540000*
X13100000*
X13094587Y13555000D02*
X13105412D01*
X13089174Y13570000D02*
X13094473D01*
X13105526D02*
X13110825D01*
X13090000Y13567712D02*
Y13576070D01*
X13105000Y13553856D02*
Y13569285D01*
X12450000Y11550000D02*
Y11650000D01*
X12550000Y11550000D02*
X12650000D01*
Y11650000*
X12450000D02*
Y11750000D01*
Y11850000*
X12650000*
Y11650000D02*
Y11750000D01*
Y11850000*
X13100000Y12800000D02*
Y13000000D01*
X13000000Y13100000D02*
Y13300000D01*
X13100000Y13000000D02*
Y13200000D01*
X13000000Y12900000D02*
Y13100000D01*
X12900000Y13400000D02*
Y13300000D01*
X12800000*
Y13500000*
X13000000D02*
Y13300000D01*
X12900000*
X13100000Y13200000D02*
Y13400000D01*
X12800000Y13500000D02*
Y13600000D01*
X12900000*
Y13400000D02*
Y13600000D01*
X13000000*
X13100000D02*
X13000000D01*
Y13500000*
X13100000Y13400000D02*
Y13600000D01*
G54D19*
X8999999Y31600000D02*
G75*
G03X8999999I-199999D01*
G01X8550000D02*
X9050000D01*
X8800000Y31850000D02*
Y31350000D01*
X39799999Y8400000D02*
G03X39799999I-199999D01*
G01X39350000D02*
X39850000D01*
X39600000Y8650000D02*
Y8150000D01*
X40399999Y8400000D02*
G03X40399999I-199999D01*
G01X39950000D02*
X40450000D01*
X40200000Y8650000D02*
Y8150000D01*
G54D20*
X12450000Y11350000D03*
Y11550000D03*
Y11450000D03*
X12550000Y11350000D03*
X12650000D03*
Y11450000D03*
X12550000Y11550000D03*
Y11450000D03*
X12650000Y11550000D03*
X13870000Y11430000D03*
X12165000Y11635000D03*
X12450000Y11650000D03*
Y11750000D03*
Y11850000D03*
X12550000Y11750000D03*
Y11650000D03*
Y11850000D03*
X12650000Y11650000D03*
Y11750000D03*
Y11850000D03*
X12450000Y12050000D03*
Y11950000D03*
X12290000Y11970000D03*
X12650000Y12050000D03*
Y11950000D03*
X12550000Y12050000D03*
Y11950000D03*
X12750000Y12130000D03*
X12900000Y12800000D03*
X13100000D03*
X12800000Y12900000D03*
X12900000Y13000000D03*
X13000000Y13100000D03*
X13100000Y13000000D03*
X13000000Y12900000D03*
X12900000Y13200000D03*
X12800000Y13300000D03*
X13000000D03*
X13100000Y13200000D03*
X12900000Y13600000D03*
X12800000Y13500000D03*
X12900000Y13400000D03*
X13100000Y13600000D03*
X13000000Y13500000D03*
X13100000Y13400000D03*
X13520000Y13550000D03*
G54D21*
X13225000Y11400000D02*
G03X13225000I-125000D01*
G01Y11900000D02*
G03X13225000I-125000D01*
G01X11965000Y14200000D02*
G03X11965000I-115000D01*
G01X13925000Y13100000D02*
G03X13925000I-125000D01*
G01X14795000Y10796859D02*
Y14203140D01*
X14795000D02*
G03X14786506Y14206717I-5000J0D01*
G01X14206717Y14786505D02*
G03X14786505Y14206717I293283J-286505D01*
G01X14206717Y14786506D02*
G03X14203140Y14795000I-3576J3494D01*
G01X14203140D02*
X10796859D01*
G03X10793282Y14786506I0J-5000*
G01X10213494Y14206717D02*
G03X10793282Y14786505I286506J293283D01*
G01X10213493Y14206717D02*
G03X10205000Y14203140I-3493J-3576D01*
G01X10205000D02*
Y10796859D01*
G03X10213493Y10793282I5000J0*
G01X10793282Y10213494D02*
G03X10213494Y10793282I-293282J286506D01*
G01X10793282Y10213493D02*
G03X10796859Y10205000I3577J-3493D01*
G01X14203140*
X14203140D02*
G03X14206717Y10213493I0J5000D01*
G01X14786505Y10793282D02*
G03X14206717Y10213494I-286505J-293282D01*
G01X14786506Y10793282D02*
G03X14795000Y10796859I3494J3577D01*
G01X14140000Y13220000D02*
Y11482500D01*
X14128284Y11454215D02*
G03X14140000Y11482500I-28284J28285D01*
G01X14128284Y11454215D02*
X14075784Y11401715D01*
X14047500Y11389999D02*
G03X14075784Y11401715I0J40001D01*
G01X14047500Y11389999D02*
X13934777D01*
X13934777D02*
G03X13933727Y11389888I0J-4999D01*
G01X13897478Y11382104*
X13897478D02*
G03X13896151Y11381614I1050J-4888D01*
G01X13896150Y11478385D02*
G03X13896151Y11381614I-26150J-48385D01*
G01X13896150Y11478386D02*
G03X13897478Y11477896I2377J4398D01*
G01X13933727Y11470112*
X13933727D02*
G03X13934777Y11470000I1050J4888D01*
G01X13934777D02*
X14028860D01*
X14028860D02*
G03X14032395Y11471465I0J5000D01*
G01X14032395D02*
X14058535Y11497604D01*
G03X14059999Y11501139I-3535J3535*
G01X14059999D02*
Y13201360D01*
X14059999D02*
G03X14058535Y13204895I-4999J0D01*
G01X14058535D02*
X13754895Y13508535D01*
Y13508534D02*
G03X13751360Y13509999I-3534J-3534D01*
G01X13751360D02*
X13584777D01*
X13584777D02*
G03X13583727Y13509888I0J-4999D01*
G01X13547478Y13502104*
X13547478D02*
G03X13546151Y13501614I1050J-4888D01*
G01X13546150Y13598385D02*
G03X13546151Y13501614I-26150J-48385D01*
G01X13546150Y13598386D02*
G03X13547478Y13597896I2377J4398D01*
G01X13583727Y13590112*
X13583727D02*
G03X13584777Y13590000I1050J4888D01*
G01X13584777D02*
X13770000D01*
X13798284Y13578284D02*
G03X13770000Y13590000I-28284J-28284D01*
G01X13798284Y13578284D02*
X14128284Y13248284D01*
X14140000Y13220000D02*
G03X14128284Y13248284I-40000J0D01*
G01X13804000Y14125000D02*
Y14075000D01*
X13503999D02*
G03X13804000I150001J0D01*
G01X13503999D02*
Y14125000D01*
X13804000D02*
G03X13503999I-150000J0D01*
G01X13225000Y11400000D02*
G03X13225000I-125000D01*
G01Y11900000D02*
G03X13225000I-125000D01*
G01X12723849Y12081614D02*
G03Y12178385I26151J48386D01*
G01Y12081614D02*
G03X12722521Y12082104I-2377J-4398D01*
G01X12722521D02*
X12686272Y12089888D01*
G03X12685222Y12089999I-1049J-4888*
G01X12685222D02*
X12438639D01*
X12438639D02*
G03X12435104Y12088535I0J-4999D01*
G01X12421465Y12074895*
X12421465D02*
G03X12420000Y12071360I3535J-3534D01*
G01X12420000D02*
Y12060000D01*
X12408284Y12031715D02*
G03X12420000Y12060000I-28284J28285D01*
G01X12408284Y12031715D02*
X12364089Y11987519D01*
X12364089D02*
G03X12363425Y11986698I3535J-3534D01*
G01X12363425D02*
X12343297Y11955562D01*
X12343297D02*
G03X12342705Y11954277I4199J-2713D01*
G01X12274277Y12022705D02*
G03X12342705Y11954277I15723J-52705D01*
G01X12274277Y12022705D02*
G03X12275562Y12023297I-1428J4791D01*
G01X12275562D02*
X12306698Y12043425D01*
X12306698D02*
G03X12307519Y12044089I-2713J4199D01*
G01X12307519D02*
X12338535Y12075104D01*
G03X12339999Y12078639I-3535J3535*
G01X12339999D02*
Y12090000D01*
X12351715Y12118284D02*
G03X12339999Y12090000I28285J-28284D01*
G01X12351715Y12118284D02*
X12391715Y12158284D01*
X12420000Y12170000D02*
G03X12391715Y12158284I0J-40000D01*
G01X12420000Y12170000D02*
X12685222D01*
X12685222D02*
G03X12686272Y12170112I0J5000D01*
G01X12686272D02*
X12722521Y12177896D01*
X12722521D02*
G03X12723849Y12178386I-1049J4888D01*
G01X12138849Y11586614D02*
G03Y11683385I26151J48386D01*
G01Y11586614D02*
G03X12137521Y11587104I-2377J-4398D01*
G01X12137521D02*
X12101272Y11594888D01*
G03X12100222Y11594999I-1049J-4888*
G01X12100222D02*
X11570000D01*
X11542075Y11606359D02*
G03X11570000Y11594999I27925J28641D01*
G01X11542075Y11606359D02*
X11342075Y11801359D01*
X11329999Y11830000D02*
G03X11342075Y11801359I40001J0D01*
G01X11329999Y11830000D02*
Y13610000D01*
X11341715Y13638284D02*
G03X11329999Y13610000I28285J-28284D01*
G01X11341715Y13638284D02*
X11558535Y13855104D01*
G03X11559999Y13858639I-3535J3535*
G01X11559999D02*
Y14010979D01*
X11559999D02*
G03X11559613Y14012906I-4999J0D01*
G01X11559613D02*
X11513067Y14124342D01*
X11513067D02*
G03X11512268Y14125647I-4613J-1927D01*
G01X11687731D02*
G03X11512268I-87731J74353D01*
G01X11687731D02*
G03X11686932Y14124342I3815J-3231D01*
G01X11686932D02*
X11640386Y14012906D01*
X11640386D02*
G03X11640000Y14010979I4614J-1926D01*
G01X11640000D02*
Y13840000D01*
X11628284Y13811715D02*
G03X11640000Y13840000I-28284J28285D01*
G01X11628284Y13811715D02*
X11411465Y13594895D01*
X11411465D02*
G03X11410000Y13591360I3535J-3534D01*
G01X11410000D02*
Y11848974D01*
X11410000D02*
G03X11411510Y11845394I5000J0D01*
G01X11584816Y11676420*
X11584816D02*
G03X11588307Y11675000I3491J3580D01*
G01X11588307D02*
X11799997D01*
X11799997D02*
G03X11801920Y11684615I0J5000D01*
G01X11898079D02*
G03X11801920I-48079J115385D01*
G01X11898079D02*
G03X11900002Y11675000I1923J-4614D01*
G01X11900002D02*
X12100222D01*
X12100222D02*
G03X12101272Y11675112I0J5000D01*
G01X12101272D02*
X12137521Y11682896D01*
X12137521D02*
G03X12138849Y11683386I-1049J4888D01*
G01X11965000Y14200000D02*
G03X11965000I-115000D01*
G01X10625000Y11795999D02*
G03Y12096000I0J150001D01*
G01Y11795999D02*
X10575000D01*
Y12096000D02*
G03Y11795999I0J-150000D01*
G01Y12096000D02*
X10625000D01*
X13925000Y13100000D02*
G03X13925000I-125000D01*
G01X14780498Y14200966D02*
X14795000D01*
X14770584Y14191966D02*
X14795000D01*
X14759981Y14182966D02*
X14795000D01*
X14748601Y14173966D02*
X14795000D01*
X14736332Y14164966D02*
X14795000D01*
X14723028Y14155966D02*
X14795000D01*
X14708489Y14146966D02*
X14795000D01*
X14692437Y14137966D02*
X14795000D01*
X14674455Y14128966D02*
X14795000D01*
X14653867Y14119966D02*
X14795000D01*
X14629435Y14110966D02*
X14795000D01*
X14598335Y14101966D02*
X14795000D01*
X14549237Y14092966D02*
X14795000D01*
X13804000Y14083966D02*
X14795000D01*
X13804000Y14074966D02*
X14795000D01*
X13803728Y14065966D02*
X14795000D01*
X13802912Y14056966D02*
X14795000D01*
X13801544Y14047966D02*
X14795000D01*
X13799608Y14038966D02*
X14795000D01*
X13797080Y14029966D02*
X14795000D01*
X13793930Y14020966D02*
X14795000D01*
X13790113Y14011966D02*
X14795000D01*
X13785572Y14002966D02*
X14795000D01*
X13780229Y13993966D02*
X14795000D01*
X13773975Y13984966D02*
X14795000D01*
X13766661Y13975966D02*
X14795000D01*
X13758062Y13966966D02*
X14795000D01*
X13747826Y13957966D02*
X14795000D01*
X13735337Y13948966D02*
X14795000D01*
X13719315Y13939966D02*
X14795000D01*
X13695887Y13930966D02*
X14795000D01*
X11640000Y13921966D02*
X14795000D01*
X11640000Y13912966D02*
X14795000D01*
X11640000Y13903966D02*
X14795000D01*
X11640000Y13894966D02*
X14795000D01*
X11640000Y13885966D02*
X14795000D01*
X11640000Y13876966D02*
X14795000D01*
X11640000Y13867966D02*
X14795000D01*
X11640000Y13858966D02*
X14795000D01*
X11640000Y13849966D02*
X14795000D01*
X11640000Y13840966D02*
X14795000D01*
X11639185Y13831966D02*
X14795000D01*
X11636192Y13822966D02*
X14795000D01*
X11630369Y13813966D02*
X14795000D01*
X11621536Y13804966D02*
X14795000D01*
X11612536Y13795966D02*
X14795000D01*
X11603536Y13786966D02*
X14795000D01*
X11594536Y13777966D02*
X14795000D01*
X11585536Y13768966D02*
X14795000D01*
X11576536Y13759966D02*
X14795000D01*
X11567536Y13750966D02*
X14795000D01*
X11558536Y13741966D02*
X14795000D01*
X11549536Y13732966D02*
X14795000D01*
X11540536Y13723966D02*
X14795000D01*
X11531536Y13714966D02*
X14795000D01*
X11522536Y13705966D02*
X14795000D01*
X11513536Y13696966D02*
X14795000D01*
X11504536Y13687966D02*
X14795000D01*
X11495536Y13678966D02*
X14795000D01*
X11486536Y13669966D02*
X14795000D01*
X11477536Y13660966D02*
X14795000D01*
X11468536Y13651966D02*
X14795000D01*
X11459536Y13642966D02*
X14795000D01*
X11450536Y13633966D02*
X14795000D01*
X11441536Y13624966D02*
X14795000D01*
X11432536Y13615966D02*
X14795000D01*
X11423536Y13606966D02*
X14795000D01*
X13547191Y13597966D02*
X14795000D01*
X13779035Y13588966D02*
X14795000D01*
X13796496Y13579966D02*
X14795000D01*
X13805602Y13570966D02*
X14795000D01*
X13814602Y13561966D02*
X14795000D01*
X13823602Y13552966D02*
X14795000D01*
X13832602Y13543966D02*
X14795000D01*
X13841602Y13534966D02*
X14795000D01*
X13850602Y13525966D02*
X14795000D01*
X13859602Y13516966D02*
X14795000D01*
X13868602Y13507966D02*
X14795000D01*
X13877602Y13498966D02*
X14795000D01*
X13886602Y13489966D02*
X14795000D01*
X13895602Y13480966D02*
X14795000D01*
X13904602Y13471966D02*
X14795000D01*
X13913602Y13462966D02*
X14795000D01*
X13922602Y13453966D02*
X14795000D01*
X13931602Y13444966D02*
X14795000D01*
X13940602Y13435966D02*
X14795000D01*
X13949602Y13426966D02*
X14795000D01*
X13958602Y13417966D02*
X14795000D01*
X13967602Y13408966D02*
X14795000D01*
X13976602Y13399966D02*
X14795000D01*
X13985602Y13390966D02*
X14795000D01*
X13994602Y13381966D02*
X14795000D01*
X14003602Y13372966D02*
X14795000D01*
X14012602Y13363966D02*
X14795000D01*
X14021602Y13354966D02*
X14795000D01*
X14030602Y13345966D02*
X14795000D01*
X14039602Y13336966D02*
X14795000D01*
X14048602Y13327966D02*
X14795000D01*
X14057602Y13318966D02*
X14795000D01*
X14066602Y13309966D02*
X14795000D01*
X14075602Y13300966D02*
X14795000D01*
X14084602Y13291966D02*
X14795000D01*
X14093602Y13282966D02*
X14795000D01*
X14102602Y13273966D02*
X14795000D01*
X14111602Y13264966D02*
X14795000D01*
X14120602Y13255966D02*
X14795000D01*
X14129543Y13246966D02*
X14795000D01*
X14135738Y13237966D02*
X14795000D01*
X14138982Y13228966D02*
X14795000D01*
X14140000Y13219966D02*
X14795000D01*
X14140000Y13210966D02*
X14795000D01*
X14140000Y13201966D02*
X14795000D01*
X14140000Y13192966D02*
X14795000D01*
X14140000Y13183966D02*
X14795000D01*
X14140000Y13174966D02*
X14795000D01*
X14140000Y13165966D02*
X14795000D01*
X14140000Y13156966D02*
X14795000D01*
X14140000Y13147966D02*
X14795000D01*
X14140000Y13138966D02*
X14795000D01*
X14140000Y13129966D02*
X14795000D01*
X14140000Y13120966D02*
X14795000D01*
X14140000Y13111966D02*
X14795000D01*
X14140000Y13102966D02*
X14795000D01*
X14140000Y13093966D02*
X14795000D01*
X14140000Y13084966D02*
X14795000D01*
X14140000Y13075966D02*
X14795000D01*
X14140000Y13066966D02*
X14795000D01*
X14140000Y13057966D02*
X14795000D01*
X14140000Y13048966D02*
X14795000D01*
X14140000Y13039966D02*
X14795000D01*
X14140000Y13030966D02*
X14795000D01*
X14140000Y13021966D02*
X14795000D01*
X14140000Y13012966D02*
X14795000D01*
X14140000Y13003966D02*
X14795000D01*
X14140000Y12994966D02*
X14795000D01*
X14140000Y12985966D02*
X14795000D01*
X14140000Y12976966D02*
X14795000D01*
X14140000Y12967966D02*
X14795000D01*
X14140000Y12958966D02*
X14795000D01*
X14140000Y12949966D02*
X14795000D01*
X14140000Y12940966D02*
X14795000D01*
X14140000Y12931966D02*
X14795000D01*
X14140000Y12922966D02*
X14795000D01*
X14140000Y12913966D02*
X14795000D01*
X14140000Y12904966D02*
X14795000D01*
X14140000Y12895966D02*
X14795000D01*
X14140000Y12886966D02*
X14795000D01*
X14140000Y12877966D02*
X14795000D01*
X14140000Y12868966D02*
X14795000D01*
X14140000Y12859966D02*
X14795000D01*
X14140000Y12850966D02*
X14795000D01*
X14140000Y12841966D02*
X14795000D01*
X14140000Y12832966D02*
X14795000D01*
X14140000Y12823966D02*
X14795000D01*
X14140000Y12814966D02*
X14795000D01*
X14140000Y12805966D02*
X14795000D01*
X14140000Y12796966D02*
X14795000D01*
X14140000Y12787966D02*
X14795000D01*
X14140000Y12778966D02*
X14795000D01*
X14140000Y12769966D02*
X14795000D01*
X14140000Y12760966D02*
X14795000D01*
X14140000Y12751966D02*
X14795000D01*
X14140000Y12742966D02*
X14795000D01*
X14140000Y12733966D02*
X14795000D01*
X14140000Y12724966D02*
X14795000D01*
X14140000Y12715966D02*
X14795000D01*
X14140000Y12706966D02*
X14795000D01*
X14140000Y12697966D02*
X14795000D01*
X14140000Y12688966D02*
X14795000D01*
X14140000Y12679966D02*
X14795000D01*
X14140000Y12670966D02*
X14795000D01*
X14140000Y12661966D02*
X14795000D01*
X14140000Y12652966D02*
X14795000D01*
X14140000Y12643966D02*
X14795000D01*
X14140000Y12634966D02*
X14795000D01*
X14140000Y12625966D02*
X14795000D01*
X14140000Y12616966D02*
X14795000D01*
X14140000Y12607966D02*
X14795000D01*
X14140000Y12598966D02*
X14795000D01*
X14140000Y12589966D02*
X14795000D01*
X14140000Y12580966D02*
X14795000D01*
X14140000Y12571966D02*
X14795000D01*
X14140000Y12562966D02*
X14795000D01*
X14140000Y12553966D02*
X14795000D01*
X14140000Y12544966D02*
X14795000D01*
X14140000Y12535966D02*
X14795000D01*
X14140000Y12526966D02*
X14795000D01*
X14140000Y12517966D02*
X14795000D01*
X14140000Y12508966D02*
X14795000D01*
X14140000Y12499966D02*
X14795000D01*
X14140000Y12490966D02*
X14795000D01*
X14140000Y12481966D02*
X14795000D01*
X14140000Y12472966D02*
X14795000D01*
X14140000Y12463966D02*
X14795000D01*
X14140000Y12454966D02*
X14795000D01*
X14140000Y12445966D02*
X14795000D01*
X14140000Y12436966D02*
X14795000D01*
X14140000Y12427966D02*
X14795000D01*
X14140000Y12418966D02*
X14795000D01*
X14140000Y12409966D02*
X14795000D01*
X14140000Y12400966D02*
X14795000D01*
X14140000Y12391966D02*
X14795000D01*
X14140000Y12382966D02*
X14795000D01*
X14140000Y12373966D02*
X14795000D01*
X14140000Y12364966D02*
X14795000D01*
X14140000Y12355966D02*
X14795000D01*
X14140000Y12346966D02*
X14795000D01*
X14140000Y12337966D02*
X14795000D01*
X14140000Y12328966D02*
X14795000D01*
X14140000Y12319966D02*
X14795000D01*
X14140000Y12310966D02*
X14795000D01*
X14140000Y12301966D02*
X14795000D01*
X14140000Y12292966D02*
X14795000D01*
X14140000Y12283966D02*
X14795000D01*
X14140000Y12274966D02*
X14795000D01*
X14140000Y12265966D02*
X14795000D01*
X14140000Y12256966D02*
X14795000D01*
X14140000Y12247966D02*
X14795000D01*
X14140000Y12238966D02*
X14795000D01*
X14140000Y12229966D02*
X14795000D01*
X14140000Y12220966D02*
X14795000D01*
X14140000Y12211966D02*
X14795000D01*
X14140000Y12202966D02*
X14795000D01*
X14140000Y12193966D02*
X14795000D01*
X14140000Y12184966D02*
X14795000D01*
X14140000Y12175966D02*
X14795000D01*
X14140000Y12166966D02*
X14795000D01*
X14140000Y12157966D02*
X14795000D01*
X14140000Y12148966D02*
X14795000D01*
X14140000Y12139966D02*
X14795000D01*
X14140000Y12130966D02*
X14795000D01*
X14140000Y12121966D02*
X14795000D01*
X14140000Y12112966D02*
X14795000D01*
X14140000Y12103966D02*
X14795000D01*
X14140000Y12094966D02*
X14795000D01*
X14140000Y12085966D02*
X14795000D01*
X14140000Y12076966D02*
X14795000D01*
X14140000Y12067966D02*
X14795000D01*
X14140000Y12058966D02*
X14795000D01*
X14140000Y12049966D02*
X14795000D01*
X14140000Y12040966D02*
X14795000D01*
X14140000Y12031966D02*
X14795000D01*
X14140000Y12022966D02*
X14795000D01*
X14140000Y12013966D02*
X14795000D01*
X14140000Y12004966D02*
X14795000D01*
X14140000Y11995966D02*
X14795000D01*
X14140000Y11986966D02*
X14795000D01*
X14140000Y11977966D02*
X14795000D01*
X14140000Y11968966D02*
X14795000D01*
X14140000Y11959966D02*
X14795000D01*
X14140000Y11950966D02*
X14795000D01*
X14140000Y11941966D02*
X14795000D01*
X14140000Y11932966D02*
X14795000D01*
X14140000Y11923966D02*
X14795000D01*
X14140000Y11914966D02*
X14795000D01*
X14140000Y11905966D02*
X14795000D01*
X14140000Y11896966D02*
X14795000D01*
X14140000Y11887966D02*
X14795000D01*
X14140000Y11878966D02*
X14795000D01*
X14140000Y11869966D02*
X14795000D01*
X14140000Y11860966D02*
X14795000D01*
X14140000Y11851966D02*
X14795000D01*
X14140000Y11842966D02*
X14795000D01*
X14140000Y11833966D02*
X14795000D01*
X14140000Y11824966D02*
X14795000D01*
X14140000Y11815966D02*
X14795000D01*
X14140000Y11806966D02*
X14795000D01*
X14140000Y11797966D02*
X14795000D01*
X14140000Y11788966D02*
X14795000D01*
X14140000Y11779966D02*
X14795000D01*
X14140000Y11770966D02*
X14795000D01*
X14140000Y11761966D02*
X14795000D01*
X14140000Y11752966D02*
X14795000D01*
X14140000Y11743966D02*
X14795000D01*
X14140000Y11734966D02*
X14795000D01*
X14140000Y11725966D02*
X14795000D01*
X14140000Y11716966D02*
X14795000D01*
X14140000Y11707966D02*
X14795000D01*
X14140000Y11698966D02*
X14795000D01*
X14140000Y11689966D02*
X14795000D01*
X14140000Y11680966D02*
X14795000D01*
X14140000Y11671966D02*
X14795000D01*
X14140000Y11662966D02*
X14795000D01*
X14140000Y11653966D02*
X14795000D01*
X14140000Y11644966D02*
X14795000D01*
X14140000Y11635966D02*
X14795000D01*
X14140000Y11626966D02*
X14795000D01*
X14140000Y11617966D02*
X14795000D01*
X14140000Y11608966D02*
X14795000D01*
X14140000Y11599966D02*
X14795000D01*
X14140000Y11590966D02*
X14795000D01*
X14140000Y11581966D02*
X14795000D01*
X14140000Y11572966D02*
X14795000D01*
X14140000Y11563966D02*
X14795000D01*
X14140000Y11554966D02*
X14795000D01*
X14140000Y11545966D02*
X14795000D01*
X14140000Y11536966D02*
X14795000D01*
X14140000Y11527966D02*
X14795000D01*
X14140000Y11518966D02*
X14795000D01*
X14140000Y11509966D02*
X14795000D01*
X14140000Y11500966D02*
X14795000D01*
X14140000Y11491966D02*
X14795000D01*
X14140000Y11482966D02*
X14795000D01*
X14139079Y11473966D02*
X14795000D01*
X14135953Y11464966D02*
X14795000D01*
X14129933Y11455966D02*
X14795000D01*
X14121036Y11446966D02*
X14795000D01*
X14112036Y11437966D02*
X14795000D01*
X14103036Y11428966D02*
X14795000D01*
X14094036Y11419966D02*
X14795000D01*
X14085036Y11410966D02*
X14795000D01*
X14076036Y11401966D02*
X14795000D01*
X14062618Y11392966D02*
X14795000D01*
X13906152Y11383966D02*
X14795000D01*
X13222468Y11374966D02*
X14795000D01*
X13220278Y11365966D02*
X14795000D01*
X13217359Y11356966D02*
X14795000D01*
X13213655Y11347966D02*
X14795000D01*
X13209087Y11338966D02*
X14795000D01*
X13203539Y11329966D02*
X14795000D01*
X13196844Y11320966D02*
X14795000D01*
X13188742Y11311966D02*
X14795000D01*
X13178801Y11302966D02*
X14795000D01*
X13166197Y11293966D02*
X14795000D01*
X13148912Y11284966D02*
X14795000D01*
X13115519Y11275966D02*
X14795000D01*
X10205000Y11266966D02*
X14795000D01*
X10205000Y11257966D02*
X14795000D01*
X10205000Y11248966D02*
X14795000D01*
X10205000Y11239966D02*
X14795000D01*
X10205000Y11230966D02*
X14795000D01*
X10205000Y11221966D02*
X14795000D01*
X10205000Y11212966D02*
X14795000D01*
X10205000Y11203966D02*
X14795000D01*
X10205000Y11194966D02*
X14795000D01*
X10205000Y11185966D02*
X14795000D01*
X10205000Y11176966D02*
X14795000D01*
X10205000Y11167966D02*
X14795000D01*
X10205000Y11158966D02*
X14795000D01*
X10205000Y11149966D02*
X14795000D01*
X10205000Y11140966D02*
X14795000D01*
X10205000Y11131966D02*
X14795000D01*
X10205000Y11122966D02*
X14795000D01*
X10205000Y11113966D02*
X14795000D01*
X10205000Y11104966D02*
X14795000D01*
X10205000Y11095966D02*
X14795000D01*
X10205000Y11086966D02*
X14795000D01*
X10205000Y11077966D02*
X14795000D01*
X10205000Y11068966D02*
X14795000D01*
X10205000Y11059966D02*
X14795000D01*
X10205000Y11050966D02*
X14795000D01*
X10205000Y11041966D02*
X14795000D01*
X10205000Y11032966D02*
X14795000D01*
X10205000Y11023966D02*
X14795000D01*
X10205000Y11014966D02*
X14795000D01*
X10205000Y11005966D02*
X14795000D01*
X10205000Y10996966D02*
X14795000D01*
X10205000Y10987966D02*
X14795000D01*
X10205000Y10978966D02*
X14795000D01*
X10205000Y10969966D02*
X14795000D01*
X10205000Y10960966D02*
X14795000D01*
X10205000Y10951966D02*
X14795000D01*
X10205000Y10942966D02*
X14795000D01*
X10205000Y10933966D02*
X14795000D01*
X10205000Y10924966D02*
X14795000D01*
X10205000Y10915966D02*
X14795000D01*
X14549785Y10906966D02*
X14795000D01*
X14598605Y10897966D02*
X14795000D01*
X14629635Y10888966D02*
X14795000D01*
X14654031Y10879966D02*
X14795000D01*
X14674597Y10870966D02*
X14795000D01*
X14692563Y10861966D02*
X14795000D01*
X14708602Y10852966D02*
X14795000D01*
X14723130Y10843966D02*
X14795000D01*
X14736427Y10834966D02*
X14795000D01*
X14748688Y10825966D02*
X14795000D01*
X14760062Y10816966D02*
X14795000D01*
X14770660Y10807966D02*
X14795000D01*
X14780569Y10798966D02*
X14795000D01*
X13804000Y14092966D02*
X14450762D01*
X10549785Y10906966D02*
X14450214D01*
X13804000Y14101966D02*
X14401664D01*
X10598605Y10897966D02*
X14401394D01*
X13804000Y14110966D02*
X14370564D01*
X10629635Y10888966D02*
X14370364D01*
X13804000Y14119966D02*
X14346132D01*
X10654031Y10879966D02*
X14345968D01*
X13803948Y14128966D02*
X14325544D01*
X10674597Y10870966D02*
X14325402D01*
X13803439Y14137966D02*
X14307562D01*
X10692563Y10861966D02*
X14307436D01*
X13802383Y14146966D02*
X14291510D01*
X10708602Y10852966D02*
X14291397D01*
X13800769Y14155966D02*
X14276972D01*
X10723130Y10843966D02*
X14276869D01*
X13798578Y14164966D02*
X14263667D01*
X10736427Y10834966D02*
X14263572D01*
X13795783Y14173966D02*
X14251398D01*
X10748688Y10825966D02*
X14251311D01*
X13792347Y14182966D02*
X14240018D01*
X10760062Y10816966D02*
X14239937D01*
X13788222Y14191966D02*
X14229415D01*
X10770660Y10807966D02*
X14229339D01*
X13783341Y14200966D02*
X14219501D01*
X10780569Y10798966D02*
X14219430D01*
X13777615Y14209966D02*
X14210205D01*
X10789861Y10789966D02*
X14210138D01*
X10793743Y10213966D02*
X14206256D01*
X10793808Y14785966D02*
X14206191D01*
X10796282Y14794966D02*
X14203717D01*
X13770920Y14218966D02*
X14201469D01*
X10798593Y10780966D02*
X14201406D01*
X10802246Y10222966D02*
X14197753D01*
X10802307Y14776966D02*
X14197692D01*
X13763078Y14227966D02*
X14193245D01*
X10806813Y10771966D02*
X14193186D01*
X10810255Y10231966D02*
X14189744D01*
X10810313Y14767966D02*
X14189686D01*
X13753817Y14236966D02*
X14185494D01*
X10814561Y10762966D02*
X14185438D01*
X10817808Y10240966D02*
X14182191D01*
X10817862Y14758966D02*
X14182137D01*
X13742697Y14245966D02*
X14178180D01*
X10821871Y10753966D02*
X14178128D01*
X10824936Y10249966D02*
X14175063D01*
X10824987Y14749966D02*
X14175012D01*
X13728892Y14254966D02*
X14171276D01*
X10828773Y10744966D02*
X14171226D01*
X10831667Y10258966D02*
X14168332D01*
X10831716Y14740966D02*
X14168284D01*
X13710466Y14263966D02*
X14164755D01*
X10835291Y10735966D02*
X14164708D01*
X10838025Y10267966D02*
X14161974D01*
X10838070Y14731966D02*
X14161929D01*
X13678617Y14272966D02*
X14158596D01*
X10841447Y10726966D02*
X14158552D01*
X10844029Y10276966D02*
X14155970D01*
X10844073Y14722966D02*
X14155926D01*
X11930663Y14281966D02*
X14152779D01*
X10847262Y10717966D02*
X14152737D01*
X10849700Y10285966D02*
X14150299D01*
X10849740Y14713966D02*
X14150259D01*
X11920357Y14290966D02*
X14147288D01*
X10852751Y10708966D02*
X14147248D01*
X10855051Y10294966D02*
X14144948D01*
X10855090Y14704966D02*
X14144909D01*
X11906848Y14299966D02*
X14142107D01*
X10857929Y10699966D02*
X14142070D01*
X10860099Y10303966D02*
X14139900D01*
X10860135Y14695966D02*
X14139864D01*
X11886761Y14308966D02*
X14137223D01*
X10862811Y10690966D02*
X14137188D01*
X10864854Y10312966D02*
X14135145D01*
X10864888Y14686966D02*
X14135111D01*
X10867374Y14317966D02*
X14132625D01*
X10867407Y10681966D02*
X14132592D01*
X10869329Y10321966D02*
X14130670D01*
X10869362Y14677966D02*
X14130638D01*
X10871698Y14326966D02*
X14128301D01*
X10871729Y10672966D02*
X14128270D01*
X10873534Y10330966D02*
X14126465D01*
X10873564Y14668966D02*
X14126435D01*
X10875757Y14335966D02*
X14124242D01*
X10875786Y10663966D02*
X14124213D01*
X10877478Y10339966D02*
X14122521D01*
X10877506Y14659966D02*
X14122493D01*
X10879559Y14344966D02*
X14120440D01*
X10879586Y10654966D02*
X14120413D01*
X10881168Y10348966D02*
X14118831D01*
X10881194Y14650966D02*
X14118805D01*
X10883111Y14353966D02*
X14116888D01*
X10883137Y10645966D02*
X14116862D01*
X10884612Y10357966D02*
X14115387D01*
X10884637Y14641966D02*
X14115362D01*
X10886422Y14362966D02*
X14113577D01*
X10886446Y10636966D02*
X14113553D01*
X10887817Y10366966D02*
X14112182D01*
X10887840Y14632966D02*
X14112159D01*
X10889497Y14371966D02*
X14110503D01*
X10889518Y10627966D02*
X14110481D01*
X10890789Y10375966D02*
X14109210D01*
X10890810Y14623966D02*
X14109189D01*
X10892341Y14380966D02*
X14107658D01*
X10892361Y10618966D02*
X14107638D01*
X10893532Y10384966D02*
X14106467D01*
X10893551Y14614966D02*
X14106448D01*
X10894959Y14389966D02*
X14105040D01*
X10894978Y10609966D02*
X14105021D01*
X10896052Y10393966D02*
X14103947D01*
X10896070Y14605966D02*
X14103929D01*
X10897357Y14398966D02*
X14102642D01*
X10897374Y10600966D02*
X14102625D01*
X10898352Y10402966D02*
X14101647D01*
X10898369Y14596966D02*
X14101630D01*
X10899537Y14407966D02*
X14100462D01*
X10899552Y10591966D02*
X14100447D01*
X10900438Y10411966D02*
X14099562D01*
X10900452Y14587966D02*
X14099547D01*
X10901504Y14416966D02*
X14098495D01*
X10901518Y10582966D02*
X14098481D01*
X10902311Y10420966D02*
X14097688D01*
X10902324Y14578966D02*
X14097675D01*
X10903261Y14425966D02*
X14096738D01*
X10903273Y10573966D02*
X14096726D01*
X10903974Y10429966D02*
X14096025D01*
X10903986Y14569966D02*
X14096013D01*
X10904809Y14434966D02*
X14095190D01*
X10904820Y10564966D02*
X14095179D01*
X10905432Y10438966D02*
X14094567D01*
X10905442Y14560966D02*
X14094557D01*
X10906153Y14443966D02*
X14093846D01*
X10906162Y10555966D02*
X14093837D01*
X10906685Y10447966D02*
X14093314D01*
X10906693Y14551966D02*
X14093306D01*
X10907293Y14452966D02*
X14092706D01*
X10907301Y10546966D02*
X14092698D01*
X10907735Y10456966D02*
X14092264D01*
X10907742Y14542966D02*
X14092257D01*
X10908232Y14461966D02*
X14091767D01*
X10908238Y10537966D02*
X14091761D01*
X10908585Y10465966D02*
X14091414D01*
X10908591Y14533966D02*
X14091408D01*
X10908971Y14470966D02*
X14091028D01*
X10908976Y10528966D02*
X14091024D01*
X10909235Y10474966D02*
X14090764D01*
X10909239Y14524966D02*
X14090760D01*
X10909510Y14479966D02*
X14090489D01*
X10909514Y10519966D02*
X14090485D01*
X10909686Y10483966D02*
X14090313D01*
X10909689Y14515966D02*
X14090310D01*
X10909852Y14488966D02*
X14090147D01*
X10909853Y10510966D02*
X14090146D01*
X10909940Y10492966D02*
X14090059D01*
X10909941Y14506966D02*
X14090058D01*
X10909995Y14497966D02*
X14090004D01*
X10909995Y10501966D02*
X14090004D01*
X13883560Y13192966D02*
X14059999D01*
X13892599Y13183966D02*
X14059999D01*
X13900025Y13174966D02*
X14059999D01*
X13906176Y13165966D02*
X14059999D01*
X13911265Y13156966D02*
X14059999D01*
X13915431Y13147966D02*
X14059999D01*
X13918771Y13138966D02*
X14059999D01*
X13921355Y13129966D02*
X14059999D01*
X13923229Y13120966D02*
X14059999D01*
X13924426Y13111966D02*
X14059999D01*
X13924965Y13102966D02*
X14059999D01*
X13924854Y13093966D02*
X14059999D01*
X13924093Y13084966D02*
X14059999D01*
X13922668Y13075966D02*
X14059999D01*
X13920556Y13066966D02*
X14059999D01*
X13917721Y13057966D02*
X14059999D01*
X13914108Y13048966D02*
X14059999D01*
X13909640Y13039966D02*
X14059999D01*
X13904209Y13030966D02*
X14059999D01*
X13897652Y13021966D02*
X14059999D01*
X13889723Y13012966D02*
X14059999D01*
X13880017Y13003966D02*
X14059999D01*
X13867772Y12994966D02*
X14059999D01*
X13851200Y12985966D02*
X14059999D01*
X13822089Y12976966D02*
X14059999D01*
X11410000Y12967966D02*
X14059999D01*
X11410000Y12958966D02*
X14059999D01*
X11410000Y12949966D02*
X14059999D01*
X11410000Y12940966D02*
X14059999D01*
X11410000Y12931966D02*
X14059999D01*
X11410000Y12922966D02*
X14059999D01*
X11410000Y12913966D02*
X14059999D01*
X11410000Y12904966D02*
X14059999D01*
X11410000Y12895966D02*
X14059999D01*
X11410000Y12886966D02*
X14059999D01*
X11410000Y12877966D02*
X14059999D01*
X11410000Y12868966D02*
X14059999D01*
X11410000Y12859966D02*
X14059999D01*
X11410000Y12850966D02*
X14059999D01*
X11410000Y12841966D02*
X14059999D01*
X11410000Y12832966D02*
X14059999D01*
X11410000Y12823966D02*
X14059999D01*
X11410000Y12814966D02*
X14059999D01*
X11410000Y12805966D02*
X14059999D01*
X11410000Y12796966D02*
X14059999D01*
X11410000Y12787966D02*
X14059999D01*
X11410000Y12778966D02*
X14059999D01*
X11410000Y12769966D02*
X14059999D01*
X11410000Y12760966D02*
X14059999D01*
X11410000Y12751966D02*
X14059999D01*
X11410000Y12742966D02*
X14059999D01*
X11410000Y12733966D02*
X14059999D01*
X11410000Y12724966D02*
X14059999D01*
X11410000Y12715966D02*
X14059999D01*
X11410000Y12706966D02*
X14059999D01*
X11410000Y12697966D02*
X14059999D01*
X11410000Y12688966D02*
X14059999D01*
X11410000Y12679966D02*
X14059999D01*
X11410000Y12670966D02*
X14059999D01*
X11410000Y12661966D02*
X14059999D01*
X11410000Y12652966D02*
X14059999D01*
X11410000Y12643966D02*
X14059999D01*
X11410000Y12634966D02*
X14059999D01*
X11410000Y12625966D02*
X14059999D01*
X11410000Y12616966D02*
X14059999D01*
X11410000Y12607966D02*
X14059999D01*
X11410000Y12598966D02*
X14059999D01*
X11410000Y12589966D02*
X14059999D01*
X11410000Y12580966D02*
X14059999D01*
X11410000Y12571966D02*
X14059999D01*
X11410000Y12562966D02*
X14059999D01*
X11410000Y12553966D02*
X14059999D01*
X11410000Y12544966D02*
X14059999D01*
X11410000Y12535966D02*
X14059999D01*
X11410000Y12526966D02*
X14059999D01*
X11410000Y12517966D02*
X14059999D01*
X11410000Y12508966D02*
X14059999D01*
X11410000Y12499966D02*
X14059999D01*
X11410000Y12490966D02*
X14059999D01*
X11410000Y12481966D02*
X14059999D01*
X11410000Y12472966D02*
X14059999D01*
X11410000Y12463966D02*
X14059999D01*
X11410000Y12454966D02*
X14059999D01*
X11410000Y12445966D02*
X14059999D01*
X11410000Y12436966D02*
X14059999D01*
X11410000Y12427966D02*
X14059999D01*
X11410000Y12418966D02*
X14059999D01*
X11410000Y12409966D02*
X14059999D01*
X11410000Y12400966D02*
X14059999D01*
X11410000Y12391966D02*
X14059999D01*
X11410000Y12382966D02*
X14059999D01*
X11410000Y12373966D02*
X14059999D01*
X11410000Y12364966D02*
X14059999D01*
X11410000Y12355966D02*
X14059999D01*
X11410000Y12346966D02*
X14059999D01*
X11410000Y12337966D02*
X14059999D01*
X11410000Y12328966D02*
X14059999D01*
X11410000Y12319966D02*
X14059999D01*
X11410000Y12310966D02*
X14059999D01*
X11410000Y12301966D02*
X14059999D01*
X11410000Y12292966D02*
X14059999D01*
X11410000Y12283966D02*
X14059999D01*
X11410000Y12274966D02*
X14059999D01*
X11410000Y12265966D02*
X14059999D01*
X11410000Y12256966D02*
X14059999D01*
X11410000Y12247966D02*
X14059999D01*
X11410000Y12238966D02*
X14059999D01*
X11410000Y12229966D02*
X14059999D01*
X11410000Y12220966D02*
X14059999D01*
X11410000Y12211966D02*
X14059999D01*
X11410000Y12202966D02*
X14059999D01*
X11410000Y12193966D02*
X14059999D01*
X12751929Y12184966D02*
X14059999D01*
X12780201Y12175966D02*
X14059999D01*
X12790725Y12166966D02*
X14059999D01*
X12797359Y12157966D02*
X14059999D01*
X12801626Y12148966D02*
X14059999D01*
X12804089Y12139966D02*
X14059999D01*
X12804992Y12130966D02*
X14059999D01*
X12804410Y12121966D02*
X14059999D01*
X12802296Y12112966D02*
X14059999D01*
X12798449Y12103966D02*
X14059999D01*
X12792399Y12094966D02*
X14059999D01*
X12782956Y12085966D02*
X14059999D01*
X12764578Y12076966D02*
X14059999D01*
X12420000Y12067966D02*
X14059999D01*
X12419987Y12058966D02*
X14059999D01*
X12418721Y12049966D02*
X14059999D01*
X12415182Y12040966D02*
X14059999D01*
X12408533Y12031966D02*
X14059999D01*
X13122457Y12022966D02*
X14059999D01*
X13151349Y12013966D02*
X14059999D01*
X13167875Y12004966D02*
X14059999D01*
X13180097Y11995966D02*
X14059999D01*
X13189788Y11986966D02*
X14059999D01*
X13197705Y11977966D02*
X14059999D01*
X13204253Y11968966D02*
X14059999D01*
X13209677Y11959966D02*
X14059999D01*
X13214138Y11950966D02*
X14059999D01*
X13217745Y11941966D02*
X14059999D01*
X13220575Y11932966D02*
X14059999D01*
X13222681Y11923966D02*
X14059999D01*
X13224101Y11914966D02*
X14059999D01*
X13224858Y11905966D02*
X14059999D01*
X13224963Y11896966D02*
X14059999D01*
X13224420Y11887966D02*
X14059999D01*
X13223218Y11878966D02*
X14059999D01*
X13221338Y11869966D02*
X14059999D01*
X13218749Y11860966D02*
X14059999D01*
X13215403Y11851966D02*
X14059999D01*
X13211231Y11842966D02*
X14059999D01*
X13206135Y11833966D02*
X14059999D01*
X13199975Y11824966D02*
X14059999D01*
X13192539Y11815966D02*
X14059999D01*
X13183486Y11806966D02*
X14059999D01*
X13172210Y11797966D02*
X14059999D01*
X13157417Y11788966D02*
X14059999D01*
X13134887Y11779966D02*
X14059999D01*
X11971582Y11770966D02*
X14059999D01*
X11969073Y11761966D02*
X14059999D01*
X11965814Y11752966D02*
X14059999D01*
X11961738Y11743966D02*
X14059999D01*
X11956751Y11734966D02*
X14059999D01*
X11950718Y11725966D02*
X14059999D01*
X11943437Y11716966D02*
X14059999D01*
X11934587Y11707966D02*
X14059999D01*
X11923603Y11698966D02*
X14059999D01*
X12166929Y11689966D02*
X14059999D01*
X12195201Y11680966D02*
X14059999D01*
X12205725Y11671966D02*
X14059999D01*
X12212359Y11662966D02*
X14059999D01*
X12216626Y11653966D02*
X14059999D01*
X12219089Y11644966D02*
X14059999D01*
X12219992Y11635966D02*
X14059999D01*
X12219410Y11626966D02*
X14059999D01*
X12217296Y11617966D02*
X14059999D01*
X12213449Y11608966D02*
X14059999D01*
X12207399Y11599966D02*
X14059999D01*
X12197956Y11590966D02*
X14059999D01*
X12179578Y11581966D02*
X14059999D01*
X10205000Y11572966D02*
X14059999D01*
X10205000Y11563966D02*
X14059999D01*
X10205000Y11554966D02*
X14059999D01*
X10205000Y11545966D02*
X14059999D01*
X10205000Y11536966D02*
X14059999D01*
X10205000Y11527966D02*
X14059999D01*
X13138367Y11518966D02*
X14059999D01*
X13159434Y11509966D02*
X14059999D01*
X13173694Y11500966D02*
X14059996D01*
X13872304Y13201966D02*
X14059962D01*
X13184659Y11491966D02*
X14052897D01*
X13857545Y13210966D02*
X14052464D01*
X13884818Y11482966D02*
X14043897D01*
X13835116Y13219966D02*
X14043464D01*
X13915777Y11473966D02*
X14034897D01*
X11410000Y13228966D02*
X14034464D01*
X11410000Y13237966D02*
X14025464D01*
X11410000Y13246966D02*
X14016464D01*
X11410000Y13255966D02*
X14007464D01*
X11410000Y13264966D02*
X13998464D01*
X11410000Y13273966D02*
X13989464D01*
X11410000Y13282966D02*
X13980464D01*
X11410000Y13291966D02*
X13971464D01*
X11410000Y13300966D02*
X13962464D01*
X11410000Y13309966D02*
X13953464D01*
X11410000Y13318966D02*
X13944464D01*
X11410000Y13327966D02*
X13935464D01*
X11410000Y13336966D02*
X13926464D01*
X11410000Y13345966D02*
X13917464D01*
X11410000Y13354966D02*
X13908464D01*
X11410000Y13363966D02*
X13899464D01*
X11410000Y13372966D02*
X13890464D01*
X11410000Y13381966D02*
X13881464D01*
X11410000Y13390966D02*
X13872464D01*
X11410000Y13399966D02*
X13863464D01*
X13193496Y11482966D02*
X13855181D01*
X11410000Y13408966D02*
X13854464D01*
X11410000Y13417966D02*
X13845464D01*
X13223968Y11383966D02*
X13839900D01*
X13200767Y11473966D02*
X13836954D01*
X11410000Y13426966D02*
X13836464D01*
X13224802Y11392966D02*
X13829335D01*
X13206791Y11464966D02*
X13827545D01*
X11410000Y13435966D02*
X13827464D01*
X13224985Y11401966D02*
X13822679D01*
X13211771Y11455966D02*
X13821515D01*
X11410000Y13444966D02*
X13818464D01*
X13224518Y11410966D02*
X13818397D01*
X13215841Y11446966D02*
X13817681D01*
X13223395Y11419966D02*
X13815922D01*
X13219095Y11437966D02*
X13815579D01*
X13221598Y11428966D02*
X13815009D01*
X11410000Y13453966D02*
X13809464D01*
X11410000Y13462966D02*
X13800464D01*
X11410000Y13471966D02*
X13791464D01*
X11410000Y13480966D02*
X13782464D01*
X11410000Y12976966D02*
X13777910D01*
X11410000Y13489966D02*
X13773464D01*
X11410000Y13219966D02*
X13764884D01*
X13540509Y13498966D02*
X13764464D01*
X13574779Y13507966D02*
X13755464D01*
X11410000Y12985966D02*
X13748799D01*
X11410000Y13210966D02*
X13742454D01*
X11410000Y12994966D02*
X13732227D01*
X11410000Y13201966D02*
X13727695D01*
X11410000Y13003966D02*
X13719982D01*
X11410000Y13192966D02*
X13716439D01*
X11410000Y13012966D02*
X13710276D01*
X11410000Y13183966D02*
X13707400D01*
X11410000Y13021966D02*
X13702347D01*
X11410000Y13174966D02*
X13699974D01*
X11410000Y13030966D02*
X13695790D01*
X11410000Y13165966D02*
X13693823D01*
X11410000Y13039966D02*
X13690359D01*
X11410000Y13156966D02*
X13688734D01*
X11410000Y13048966D02*
X13685891D01*
X11410000Y13147966D02*
X13684568D01*
X11410000Y13057966D02*
X13682278D01*
X11410000Y13138966D02*
X13681228D01*
X11410000Y13066966D02*
X13679443D01*
X11410000Y13129966D02*
X13678644D01*
X11410000Y13075966D02*
X13677331D01*
X11410000Y13120966D02*
X13676770D01*
X11410000Y13084966D02*
X13675906D01*
X11410000Y13111966D02*
X13675573D01*
X11410000Y13093966D02*
X13675145D01*
X11410000Y13102966D02*
X13675034D01*
X11938887Y14272966D02*
X13629382D01*
X11640000Y13930966D02*
X13612112D01*
X11945568Y14263966D02*
X13597533D01*
X11640000Y13939966D02*
X13588684D01*
X11951013Y14254966D02*
X13579107D01*
X11640000Y13948966D02*
X13572662D01*
X11955414Y14245966D02*
X13565302D01*
X11640000Y13957966D02*
X13560173D01*
X11958897Y14236966D02*
X13554182D01*
X11640000Y13966966D02*
X13549937D01*
X11961548Y14227966D02*
X13544921D01*
X11640000Y13975966D02*
X13541338D01*
X11963425Y14218966D02*
X13537079D01*
X11640000Y13984966D02*
X13534024D01*
X11964567Y14209966D02*
X13530384D01*
X11640000Y13993966D02*
X13527771D01*
X11964996Y14200966D02*
X13524658D01*
X11640000Y14002966D02*
X13522427D01*
X11964719Y14191966D02*
X13519777D01*
X11640098Y14011966D02*
X13517886D01*
X11963732Y14182966D02*
X13515652D01*
X11643753Y14020966D02*
X13514069D01*
X11962015Y14173966D02*
X13512217D01*
X11647512Y14029966D02*
X13510919D01*
X11959534Y14164966D02*
X13509421D01*
X11651271Y14038966D02*
X13508391D01*
X11956236Y14155966D02*
X13507230D01*
X11655031Y14047966D02*
X13506455D01*
X11952042Y14146966D02*
X13505616D01*
X11658790Y14056966D02*
X13505087D01*
X11946834Y14137966D02*
X13504560D01*
X11662549Y14065966D02*
X13504271D01*
X11940440Y14128966D02*
X13504051D01*
X11932582Y14119966D02*
X13503999D01*
X11922788Y14110966D02*
X13503999D01*
X11910121Y14101966D02*
X13503999D01*
X11892059Y14092966D02*
X13503999D01*
X11670067Y14083966D02*
X13503999D01*
X11666308Y14074966D02*
X13503999D01*
X11410000Y13498966D02*
X13499490D01*
X11414536Y13597966D02*
X13493087D01*
X11410000Y13507966D02*
X13484528D01*
X11410000Y13588966D02*
X13481184D01*
X11410000Y13516966D02*
X13476024D01*
X11410000Y13579966D02*
X13473879D01*
X11410000Y13525966D02*
X13470528D01*
X11410000Y13570966D02*
X13469152D01*
X11410000Y13534966D02*
X13467093D01*
X11410000Y13561966D02*
X13466317D01*
X11410000Y13543966D02*
X13465331D01*
X11410000Y13552966D02*
X13465079D01*
X10205000Y11275966D02*
X13084480D01*
X12399536Y12022966D02*
X13077542D01*
X11973384Y11779966D02*
X13065112D01*
X10205000Y11518966D02*
X13061632D01*
X10205000Y11284966D02*
X13051087D01*
X12390536Y12013966D02*
X13048650D01*
X11974512Y11788966D02*
X13042582D01*
X10205000Y11509966D02*
X13040565D01*
X10205000Y11293966D02*
X13033802D01*
X12381536Y12004966D02*
X13032124D01*
X11974984Y11797966D02*
X13027789D01*
X10205000Y11500966D02*
X13026305D01*
X10205000Y11302966D02*
X13021198D01*
X12372536Y11995966D02*
X13019903D01*
X11974806Y11806966D02*
X13016513D01*
X10205000Y11491966D02*
X13015340D01*
X10205000Y11311966D02*
X13011257D01*
X12363611Y11986966D02*
X13010211D01*
X11973976Y11815966D02*
X13007460D01*
X10205000Y11482966D02*
X13006503D01*
X10205000Y11320966D02*
X13003155D01*
X12357780Y11977966D02*
X13002294D01*
X11972481Y11824966D02*
X13000024D01*
X10205000Y11473966D02*
X12999232D01*
X10205000Y11329966D02*
X12996460D01*
X12351962Y11968966D02*
X12995746D01*
X11970297Y11833966D02*
X12993864D01*
X10205000Y11464966D02*
X12993208D01*
X10205000Y11338966D02*
X12990912D01*
X12346144Y11959966D02*
X12990322D01*
X11967384Y11842966D02*
X12988769D01*
X10205000Y11455966D02*
X12988228D01*
X10205000Y11347966D02*
X12986344D01*
X12341602Y11950966D02*
X12985861D01*
X11963686Y11851966D02*
X12984596D01*
X10205000Y11446966D02*
X12984158D01*
X10205000Y11356966D02*
X12982640D01*
X12337320Y11941966D02*
X12982254D01*
X11959124Y11860966D02*
X12981250D01*
X10205000Y11437966D02*
X12980904D01*
X10205000Y11365966D02*
X12979721D01*
X12330664Y11932966D02*
X12979425D01*
X11953584Y11869966D02*
X12978661D01*
X10205000Y11428966D02*
X12978402D01*
X10205000Y11374966D02*
X12977531D01*
X12320099Y11923966D02*
X12977318D01*
X11946898Y11878966D02*
X12976781D01*
X10205000Y11419966D02*
X12976604D01*
X10205000Y11383966D02*
X12976032D01*
X11899069Y11914966D02*
X12975898D01*
X11938808Y11887966D02*
X12975580D01*
X10205000Y11410966D02*
X12975481D01*
X10205000Y11392966D02*
X12975197D01*
X11916303Y11905966D02*
X12975141D01*
X11928883Y11896966D02*
X12975036D01*
X10205000Y11401966D02*
X12975014D01*
X11410000Y12184966D02*
X12748070D01*
X12423536Y12076966D02*
X12735421D01*
X11410000Y12175966D02*
X12713536D01*
X12432536Y12085966D02*
X12704533D01*
X11410000Y12166966D02*
X12404719D01*
X11410000Y12157966D02*
X12391397D01*
X11410000Y12148966D02*
X12382397D01*
X11410000Y12139966D02*
X12373397D01*
X11410000Y12130966D02*
X12364397D01*
X11410000Y12121966D02*
X12355397D01*
X11410000Y12112966D02*
X12347249D01*
X11410000Y12103966D02*
X12342517D01*
X11410000Y12094966D02*
X12340309D01*
X11410000Y12085966D02*
X12339999D01*
X11410000Y12076966D02*
X12339711D01*
X11410000Y12067966D02*
X12331397D01*
X11410000Y12058966D02*
X12322397D01*
X11410000Y12049966D02*
X12313397D01*
X11410000Y12040966D02*
X12302894D01*
X11410000Y12031966D02*
X12288972D01*
X11410000Y12022966D02*
X12274964D01*
X11866043Y11923966D02*
X12259900D01*
X11410000Y12013966D02*
X12256954D01*
X11410000Y11932966D02*
X12249335D01*
X11410000Y12004966D02*
X12247545D01*
X11410000Y11941966D02*
X12242679D01*
X11410000Y11995966D02*
X12241515D01*
X11410000Y11950966D02*
X12238397D01*
X11410000Y11986966D02*
X12237681D01*
X11410000Y11959966D02*
X12235922D01*
X11410000Y11977966D02*
X12235579D01*
X11410000Y11968966D02*
X12235009D01*
X11909311Y11689966D02*
X12163070D01*
X10205000Y11581966D02*
X12150421D01*
X11895096Y11680966D02*
X12128536D01*
X10205000Y11590966D02*
X12119533D01*
X11410000Y11923966D02*
X11833956D01*
X11636761Y14308966D02*
X11813238D01*
X11673827Y14092966D02*
X11807940D01*
X11580153Y11680966D02*
X11804903D01*
X11410000Y11914966D02*
X11800930D01*
X11656848Y14299966D02*
X11793151D01*
X11570923Y11689966D02*
X11790688D01*
X11677586Y14101966D02*
X11789878D01*
X11410000Y11905966D02*
X11783696D01*
X11670357Y14290966D02*
X11779642D01*
X11681345Y14110966D02*
X11777211D01*
X11561692Y11698966D02*
X11776397D01*
X11410000Y11896966D02*
X11771116D01*
X11680663Y14281966D02*
X11769336D01*
X11685104Y14119966D02*
X11767418D01*
X11552461Y11707966D02*
X11765412D01*
X11410000Y11887966D02*
X11761191D01*
X11688887Y14272966D02*
X11761112D01*
X11690440Y14128966D02*
X11759560D01*
X11543230Y11716966D02*
X11756562D01*
X11695568Y14263966D02*
X11754431D01*
X11696834Y14137966D02*
X11753165D01*
X11410000Y11878966D02*
X11753101D01*
X11534000Y11725966D02*
X11749281D01*
X11701013Y14254966D02*
X11748986D01*
X11702042Y14146966D02*
X11747957D01*
X11410000Y11869966D02*
X11746415D01*
X11705414Y14245966D02*
X11744585D01*
X11706236Y14155966D02*
X11743763D01*
X11524769Y11734966D02*
X11743248D01*
X11708897Y14236966D02*
X11741102D01*
X11410000Y11860966D02*
X11740875D01*
X11709534Y14164966D02*
X11740465D01*
X11711548Y14227966D02*
X11738451D01*
X11515538Y11743966D02*
X11738261D01*
X11712015Y14173966D02*
X11737984D01*
X11713425Y14218966D02*
X11736574D01*
X11410000Y11851966D02*
X11736313D01*
X11713732Y14182966D02*
X11736267D01*
X11714567Y14209966D02*
X11735432D01*
X11714719Y14191966D02*
X11735280D01*
X11714996Y14200966D02*
X11735003D01*
X11506307Y11752966D02*
X11734185D01*
X11414000Y11842966D02*
X11732616D01*
X11497076Y11761966D02*
X11730926D01*
X11423230Y11833966D02*
X11729702D01*
X11487846Y11770966D02*
X11728417D01*
X11432461Y11824966D02*
X11727518D01*
X11478615Y11779966D02*
X11726615D01*
X11441692Y11815966D02*
X11726023D01*
X11469384Y11788966D02*
X11725487D01*
X11450923Y11806966D02*
X11725193D01*
X11460153Y11797966D02*
X11725016D01*
X10862776Y14308966D02*
X11563238D01*
X10205000Y14002966D02*
X11559999D01*
X10205000Y13993966D02*
X11559999D01*
X10205000Y13984966D02*
X11559999D01*
X10205000Y13975966D02*
X11559999D01*
X10205000Y13966966D02*
X11559999D01*
X10205000Y13957966D02*
X11559999D01*
X10205000Y13948966D02*
X11559999D01*
X10205000Y13939966D02*
X11559999D01*
X10205000Y13930966D02*
X11559999D01*
X10205000Y13921966D02*
X11559999D01*
X10205000Y13912966D02*
X11559999D01*
X10205000Y13903966D02*
X11559999D01*
X10205000Y13894966D02*
X11559999D01*
X10205000Y13885966D02*
X11559999D01*
X10205000Y13876966D02*
X11559999D01*
X10205000Y13867966D02*
X11559999D01*
X10205000Y13858966D02*
X11559999D01*
X10205000Y14011966D02*
X11559901D01*
X10205000Y14020966D02*
X11556246D01*
X10205000Y13849966D02*
X11553397D01*
X10205000Y14029966D02*
X11552487D01*
X10205000Y11599966D02*
X11550694D01*
X10205000Y14038966D02*
X11548728D01*
X10205000Y14047966D02*
X11544968D01*
X10205000Y13840966D02*
X11544397D01*
X10857892Y14299966D02*
X11543151D01*
X10205000Y14056966D02*
X11541209D01*
X10205000Y11608966D02*
X11539401D01*
X10205000Y14065966D02*
X11537450D01*
X10205000Y13831966D02*
X11535397D01*
X10205000Y14074966D02*
X11533691D01*
X10205000Y11617966D02*
X11530170D01*
X10205000Y14083966D02*
X11529932D01*
X10852711Y14290966D02*
X11529642D01*
X10205000Y13822966D02*
X11526397D01*
X10549237Y14092966D02*
X11526172D01*
X10598335Y14101966D02*
X11522413D01*
X10205000Y11626966D02*
X11520940D01*
X10847220Y14281966D02*
X11519336D01*
X10629435Y14110966D02*
X11518654D01*
X10205000Y13813966D02*
X11517397D01*
X10653867Y14119966D02*
X11514895D01*
X10205000Y11635966D02*
X11511709D01*
X10841403Y14272966D02*
X11511112D01*
X10674455Y14128966D02*
X11509560D01*
X10205000Y13804966D02*
X11508397D01*
X10835244Y14263966D02*
X11504431D01*
X10692437Y14137966D02*
X11503165D01*
X10205000Y11644966D02*
X11502478D01*
X10205000Y13795966D02*
X11499397D01*
X10828723Y14254966D02*
X11498986D01*
X10708489Y14146966D02*
X11497957D01*
X10821819Y14245966D02*
X11494585D01*
X10723028Y14155966D02*
X11493763D01*
X10205000Y11653966D02*
X11493247D01*
X10814505Y14236966D02*
X11491102D01*
X10736332Y14164966D02*
X11490465D01*
X10205000Y13786966D02*
X11490397D01*
X10806754Y14227966D02*
X11488451D01*
X10748601Y14173966D02*
X11487984D01*
X10798530Y14218966D02*
X11486574D01*
X10759981Y14182966D02*
X11486267D01*
X10789794Y14209966D02*
X11485432D01*
X10770584Y14191966D02*
X11485280D01*
X10780498Y14200966D02*
X11485003D01*
X10205000Y11662966D02*
X11484017D01*
X10205000Y13777966D02*
X11481397D01*
X10205000Y11671966D02*
X11474786D01*
X10205000Y13768966D02*
X11472397D01*
X10205000Y11680966D02*
X11465555D01*
X10205000Y13759966D02*
X11463397D01*
X10205000Y11689966D02*
X11456324D01*
X10205000Y13750966D02*
X11454397D01*
X10205000Y11698966D02*
X11447094D01*
X10205000Y13741966D02*
X11445397D01*
X10205000Y11707966D02*
X11437863D01*
X10205000Y13732966D02*
X11436397D01*
X10205000Y11716966D02*
X11428632D01*
X10205000Y13723966D02*
X11427397D01*
X10205000Y11725966D02*
X11419401D01*
X10205000Y13714966D02*
X11418397D01*
X10205000Y11734966D02*
X11410170D01*
X10205000Y13705966D02*
X11409397D01*
X10205000Y11743966D02*
X11400940D01*
X10205000Y13696966D02*
X11400397D01*
X10205000Y11752966D02*
X11391709D01*
X10205000Y13687966D02*
X11391397D01*
X10205000Y11761966D02*
X11382478D01*
X10205000Y13678966D02*
X11382397D01*
X10205000Y13669966D02*
X11373397D01*
X10205000Y11770966D02*
X11373247D01*
X10205000Y13660966D02*
X11364397D01*
X10205000Y11779966D02*
X11364017D01*
X10205000Y13651966D02*
X11355397D01*
X10205000Y11788966D02*
X11354786D01*
X10205000Y13642966D02*
X11346397D01*
X10649213Y11797966D02*
X11345555D01*
X10205000Y13633966D02*
X11337974D01*
X10681301Y11806966D02*
X11337296D01*
X10205000Y13624966D02*
X11332904D01*
X10699776Y11815966D02*
X11332541D01*
X10205000Y13615966D02*
X11330447D01*
X10713606Y11824966D02*
X11330317D01*
X10205000Y13606966D02*
X11329999D01*
X10205000Y13597966D02*
X11329999D01*
X10205000Y13588966D02*
X11329999D01*
X10205000Y13579966D02*
X11329999D01*
X10205000Y13570966D02*
X11329999D01*
X10205000Y13561966D02*
X11329999D01*
X10205000Y13552966D02*
X11329999D01*
X10205000Y13543966D02*
X11329999D01*
X10205000Y13534966D02*
X11329999D01*
X10205000Y13525966D02*
X11329999D01*
X10205000Y13516966D02*
X11329999D01*
X10205000Y13507966D02*
X11329999D01*
X10205000Y13498966D02*
X11329999D01*
X10205000Y13489966D02*
X11329999D01*
X10205000Y13480966D02*
X11329999D01*
X10205000Y13471966D02*
X11329999D01*
X10205000Y13462966D02*
X11329999D01*
X10205000Y13453966D02*
X11329999D01*
X10205000Y13444966D02*
X11329999D01*
X10205000Y13435966D02*
X11329999D01*
X10205000Y13426966D02*
X11329999D01*
X10205000Y13417966D02*
X11329999D01*
X10205000Y13408966D02*
X11329999D01*
X10205000Y13399966D02*
X11329999D01*
X10205000Y13390966D02*
X11329999D01*
X10205000Y13381966D02*
X11329999D01*
X10205000Y13372966D02*
X11329999D01*
X10205000Y13363966D02*
X11329999D01*
X10205000Y13354966D02*
X11329999D01*
X10205000Y13345966D02*
X11329999D01*
X10205000Y13336966D02*
X11329999D01*
X10205000Y13327966D02*
X11329999D01*
X10205000Y13318966D02*
X11329999D01*
X10205000Y13309966D02*
X11329999D01*
X10205000Y13300966D02*
X11329999D01*
X10205000Y13291966D02*
X11329999D01*
X10205000Y13282966D02*
X11329999D01*
X10205000Y13273966D02*
X11329999D01*
X10205000Y13264966D02*
X11329999D01*
X10205000Y13255966D02*
X11329999D01*
X10205000Y13246966D02*
X11329999D01*
X10205000Y13237966D02*
X11329999D01*
X10205000Y13228966D02*
X11329999D01*
X10205000Y13219966D02*
X11329999D01*
X10205000Y13210966D02*
X11329999D01*
X10205000Y13201966D02*
X11329999D01*
X10205000Y13192966D02*
X11329999D01*
X10205000Y13183966D02*
X11329999D01*
X10205000Y13174966D02*
X11329999D01*
X10205000Y13165966D02*
X11329999D01*
X10205000Y13156966D02*
X11329999D01*
X10205000Y13147966D02*
X11329999D01*
X10205000Y13138966D02*
X11329999D01*
X10205000Y13129966D02*
X11329999D01*
X10205000Y13120966D02*
X11329999D01*
X10205000Y13111966D02*
X11329999D01*
X10205000Y13102966D02*
X11329999D01*
X10205000Y13093966D02*
X11329999D01*
X10205000Y13084966D02*
X11329999D01*
X10205000Y13075966D02*
X11329999D01*
X10205000Y13066966D02*
X11329999D01*
X10205000Y13057966D02*
X11329999D01*
X10205000Y13048966D02*
X11329999D01*
X10205000Y13039966D02*
X11329999D01*
X10205000Y13030966D02*
X11329999D01*
X10205000Y13021966D02*
X11329999D01*
X10205000Y13012966D02*
X11329999D01*
X10205000Y13003966D02*
X11329999D01*
X10205000Y12994966D02*
X11329999D01*
X10205000Y12985966D02*
X11329999D01*
X10205000Y12976966D02*
X11329999D01*
X10205000Y12967966D02*
X11329999D01*
X10205000Y12958966D02*
X11329999D01*
X10205000Y12949966D02*
X11329999D01*
X10205000Y12940966D02*
X11329999D01*
X10205000Y12931966D02*
X11329999D01*
X10205000Y12922966D02*
X11329999D01*
X10205000Y12913966D02*
X11329999D01*
X10205000Y12904966D02*
X11329999D01*
X10205000Y12895966D02*
X11329999D01*
X10205000Y12886966D02*
X11329999D01*
X10205000Y12877966D02*
X11329999D01*
X10205000Y12868966D02*
X11329999D01*
X10205000Y12859966D02*
X11329999D01*
X10205000Y12850966D02*
X11329999D01*
X10205000Y12841966D02*
X11329999D01*
X10205000Y12832966D02*
X11329999D01*
X10205000Y12823966D02*
X11329999D01*
X10205000Y12814966D02*
X11329999D01*
X10205000Y12805966D02*
X11329999D01*
X10205000Y12796966D02*
X11329999D01*
X10205000Y12787966D02*
X11329999D01*
X10205000Y12778966D02*
X11329999D01*
X10205000Y12769966D02*
X11329999D01*
X10205000Y12760966D02*
X11329999D01*
X10205000Y12751966D02*
X11329999D01*
X10205000Y12742966D02*
X11329999D01*
X10205000Y12733966D02*
X11329999D01*
X10205000Y12724966D02*
X11329999D01*
X10205000Y12715966D02*
X11329999D01*
X10205000Y12706966D02*
X11329999D01*
X10205000Y12697966D02*
X11329999D01*
X10205000Y12688966D02*
X11329999D01*
X10205000Y12679966D02*
X11329999D01*
X10205000Y12670966D02*
X11329999D01*
X10205000Y12661966D02*
X11329999D01*
X10205000Y12652966D02*
X11329999D01*
X10205000Y12643966D02*
X11329999D01*
X10205000Y12634966D02*
X11329999D01*
X10205000Y12625966D02*
X11329999D01*
X10205000Y12616966D02*
X11329999D01*
X10205000Y12607966D02*
X11329999D01*
X10205000Y12598966D02*
X11329999D01*
X10205000Y12589966D02*
X11329999D01*
X10205000Y12580966D02*
X11329999D01*
X10205000Y12571966D02*
X11329999D01*
X10205000Y12562966D02*
X11329999D01*
X10205000Y12553966D02*
X11329999D01*
X10205000Y12544966D02*
X11329999D01*
X10205000Y12535966D02*
X11329999D01*
X10205000Y12526966D02*
X11329999D01*
X10205000Y12517966D02*
X11329999D01*
X10205000Y12508966D02*
X11329999D01*
X10205000Y12499966D02*
X11329999D01*
X10205000Y12490966D02*
X11329999D01*
X10205000Y12481966D02*
X11329999D01*
X10205000Y12472966D02*
X11329999D01*
X10205000Y12463966D02*
X11329999D01*
X10205000Y12454966D02*
X11329999D01*
X10205000Y12445966D02*
X11329999D01*
X10205000Y12436966D02*
X11329999D01*
X10205000Y12427966D02*
X11329999D01*
X10205000Y12418966D02*
X11329999D01*
X10205000Y12409966D02*
X11329999D01*
X10205000Y12400966D02*
X11329999D01*
X10205000Y12391966D02*
X11329999D01*
X10205000Y12382966D02*
X11329999D01*
X10205000Y12373966D02*
X11329999D01*
X10205000Y12364966D02*
X11329999D01*
X10205000Y12355966D02*
X11329999D01*
X10205000Y12346966D02*
X11329999D01*
X10205000Y12337966D02*
X11329999D01*
X10205000Y12328966D02*
X11329999D01*
X10205000Y12319966D02*
X11329999D01*
X10205000Y12310966D02*
X11329999D01*
X10205000Y12301966D02*
X11329999D01*
X10205000Y12292966D02*
X11329999D01*
X10205000Y12283966D02*
X11329999D01*
X10205000Y12274966D02*
X11329999D01*
X10205000Y12265966D02*
X11329999D01*
X10205000Y12256966D02*
X11329999D01*
X10205000Y12247966D02*
X11329999D01*
X10205000Y12238966D02*
X11329999D01*
X10205000Y12229966D02*
X11329999D01*
X10205000Y12220966D02*
X11329999D01*
X10205000Y12211966D02*
X11329999D01*
X10205000Y12202966D02*
X11329999D01*
X10205000Y12193966D02*
X11329999D01*
X10205000Y12184966D02*
X11329999D01*
X10205000Y12175966D02*
X11329999D01*
X10205000Y12166966D02*
X11329999D01*
X10205000Y12157966D02*
X11329999D01*
X10205000Y12148966D02*
X11329999D01*
X10205000Y12139966D02*
X11329999D01*
X10205000Y12130966D02*
X11329999D01*
X10205000Y12121966D02*
X11329999D01*
X10205000Y12112966D02*
X11329999D01*
X10205000Y12103966D02*
X11329999D01*
X10642581Y12094966D02*
X11329999D01*
X10678939Y12085966D02*
X11329999D01*
X10698129Y12076966D02*
X11329999D01*
X10712317Y12067966D02*
X11329999D01*
X10723684Y12058966D02*
X11329999D01*
X10733125Y12049966D02*
X11329999D01*
X10741109Y12040966D02*
X11329999D01*
X10747922Y12031966D02*
X11329999D01*
X10753748Y12022966D02*
X11329999D01*
X10758718Y12013966D02*
X11329999D01*
X10762924Y12004966D02*
X11329999D01*
X10766433Y11995966D02*
X11329999D01*
X10769297Y11986966D02*
X11329999D01*
X10771554Y11977966D02*
X11329999D01*
X10773231Y11968966D02*
X11329999D01*
X10774348Y11959966D02*
X11329999D01*
X10774918Y11950966D02*
X11329999D01*
X10774946Y11941966D02*
X11329999D01*
X10774433Y11932966D02*
X11329999D01*
X10773373Y11923966D02*
X11329999D01*
X10771755Y11914966D02*
X11329999D01*
X10769559Y11905966D02*
X11329999D01*
X10766760Y11896966D02*
X11329999D01*
X10763319Y11887966D02*
X11329999D01*
X10759189Y11878966D02*
X11329999D01*
X10754302Y11869966D02*
X11329999D01*
X10748569Y11860966D02*
X11329999D01*
X10741867Y11851966D02*
X11329999D01*
X10734015Y11842966D02*
X11329999D01*
X10724743Y11833966D02*
X11329999D01*
X10205000Y12094966D02*
X10557419D01*
X10205000Y11797966D02*
X10550786D01*
X10205000Y12085966D02*
X10521060D01*
X10205000Y11806966D02*
X10518698D01*
X10205000Y12076966D02*
X10501870D01*
X10205000Y11815966D02*
X10500223D01*
X10205000Y12067966D02*
X10487682D01*
X10205000Y11824966D02*
X10486393D01*
X10205000Y12058966D02*
X10476315D01*
X10205000Y11833966D02*
X10475256D01*
X10205000Y12049966D02*
X10466874D01*
X10205000Y11842966D02*
X10465984D01*
X10205000Y12040966D02*
X10458890D01*
X10205000Y11851966D02*
X10458133D01*
X10205000Y12031966D02*
X10452077D01*
X10205000Y11860966D02*
X10451430D01*
X10205000Y14092966D02*
X10450762D01*
X10205000Y10906966D02*
X10450214D01*
X10205000Y12022966D02*
X10446251D01*
X10205000Y11869966D02*
X10445697D01*
X10205000Y12013966D02*
X10441281D01*
X10205000Y11878966D02*
X10440811D01*
X10205000Y12004966D02*
X10437075D01*
X10205000Y11887966D02*
X10436680D01*
X10205000Y11995966D02*
X10433566D01*
X10205000Y11896966D02*
X10433240D01*
X10205000Y11986966D02*
X10430702D01*
X10205000Y11905966D02*
X10430440D01*
X10205000Y11977966D02*
X10428445D01*
X10205000Y11914966D02*
X10428244D01*
X10205000Y11968966D02*
X10426768D01*
X10205000Y11923966D02*
X10426626D01*
X10205000Y11959966D02*
X10425651D01*
X10205000Y11932966D02*
X10425566D01*
X10205000Y11950966D02*
X10425081D01*
X10205000Y11941966D02*
X10425053D01*
X10205000Y14101966D02*
X10401664D01*
X10205000Y10897966D02*
X10401394D01*
X10205000Y14110966D02*
X10370564D01*
X10205000Y10888966D02*
X10370364D01*
X10205000Y14119966D02*
X10346132D01*
X10205000Y10879966D02*
X10345968D01*
X10205000Y14128966D02*
X10325544D01*
X10205000Y10870966D02*
X10325402D01*
X10205000Y14137966D02*
X10307562D01*
X10205000Y10861966D02*
X10307436D01*
X10205000Y14146966D02*
X10291510D01*
X10205000Y10852966D02*
X10291397D01*
X10205000Y14155966D02*
X10276972D01*
X10205000Y10843966D02*
X10276869D01*
X10205000Y14164966D02*
X10263667D01*
X10205000Y10834966D02*
X10263572D01*
X10205000Y14173966D02*
X10251398D01*
X10205000Y10825966D02*
X10251311D01*
X10205000Y14182966D02*
X10240018D01*
X10205000Y10816966D02*
X10239937D01*
X10205000Y14191966D02*
X10229415D01*
X10205000Y10807966D02*
X10229339D01*
X10205000Y14200966D02*
X10219501D01*
X10205000Y10798966D02*
X10219430D01*
G54D22*
X11850000Y11800000D03*
Y12800000D03*
X13800000Y13100000D03*
X12700000D03*
X13100000Y11900000D03*
Y11400000D03*
G54D23*
X13930000Y11430000D02*
X13880606Y11440606D01*
X13880606D02*
X13915000Y11430000D01*
X13880606Y11419393*
X13880606D02*
X13930000Y11430000D01*
X13882573Y11440000D02*
X13883431D01*
X13900000Y11423557D02*
Y11425374D01*
Y11434625D02*
Y11436442D01*
X13930000Y11430000D02*
X13930000D01*
X13580000Y13550000D02*
X13530606Y13560606D01*
X13530606D02*
X13565000Y13550000D01*
X13530606Y13539393*
X13530606D02*
X13580000Y13550000D01*
X13532573Y13540000D02*
X13533431D01*
X13540000Y13541410D02*
Y13542290D01*
Y13557709D02*
Y13558589D01*
X13570000Y13547852D02*
Y13552147D01*
X11600000Y14020000D02*
X11653033Y14146967D01*
X11600000Y14095000*
X11546967Y14146967*
X11600000Y14020000*
X11600000*
X11587469Y14050000D02*
X11612530D01*
X11574938Y14080000D02*
X11625061D01*
X11562407Y14110000D02*
X11584692D01*
X11615307D02*
X11637592D01*
X11549877Y14140000D02*
X11554077D01*
X11645923D02*
X11650123D01*
X11560000Y14115764D02*
Y14134196D01*
X11590000Y14043941D02*
Y14104798D01*
X11620000Y14067882D02*
Y14114598D01*
X11650000Y14139705D02*
Y14143995D01*
X12105000Y11635000D02*
X12154393Y11624393D01*
X12154393D02*
X12120000Y11635000D01*
X12154393Y11645606*
X12154393D02*
X12105000Y11635000D01*
X12130000Y11629631D02*
Y11631916D01*
Y11638083D02*
Y11640368D01*
X12332426Y12012426D02*
X12290000Y11985000D01*
X12321819Y12001819*
X12321819D02*
X12305000Y11970000D01*
X12332426Y12012426*
X12310286Y11980000D02*
X12311464D01*
X12328672Y12010000D02*
X12330857D01*
X12310000Y11977734D02*
Y11979459D01*
Y11995571D02*
Y11997929D01*
X12690000Y12130000D02*
X12739393Y12119393D01*
X12739393D02*
X12705000Y12130000D01*
X12739393Y12140606*
X12739393D02*
X12690000Y12130000D01*
X12705000*
X12700000Y12127852D02*
Y12132147D01*
X12730000Y12121410D02*
Y12122290D01*
Y12137709D02*
Y12138589D01*
X13870000Y11430000D02*
X14047500D01*
X14100000Y11482500*
Y13220000*
X13770000Y13550000*
X13520000*
X11570000Y11635000D02*
X11370000Y11830000D01*
Y13610000*
X11600000Y13840000*
Y14200000*
X11570000Y11635000D02*
X12165000D01*
X12290000Y11970000D02*
X12380000Y12060000D01*
Y12090000*
X12420000Y12130000*
X12750000*
G54D24*
X10000000Y10000000D02*
X35000000D01*
Y30000000*
X10000000*
Y10000000*
G54D50*
X13654000Y14100000D03*
X13146000D03*
G54D51*
X10600000Y12454000D03*
Y11946000D03*
G74*
X0Y0D02*
M02*
