*
*
G04 PADS Layout (Build Number 2004.211.1) generated Gerber (RS-274-X) file*
G04 PC Version=2.1*
*
%IN "BD9E300EFJ-EVK-004.pcb"*%
*
%MOMM*%
*
%FSLAX35Y35*%
*
*
*
*
G04 PC Standard Apertures*
*
*
G04 Thermal Relief Aperture macro.*
%AMTER*
1,1,$1,0,0*
1,0,$1-$2,0,0*
21,0,$3,$4,0,0,45*
21,0,$3,$4,0,0,135*
%
*
*
G04 Annular Aperture macro.*
%AMANN*
1,1,$1,0,0*
1,0,$2,0,0*
%
*
*
G04 Odd Aperture macro.*
%AMODD*
1,1,$1,0,0*
1,0,$1-0.005,0,0*
%
*
*
G04 PC Custom Aperture Macros*
*
*
*
*
*
*
G04 PC Aperture Table*
*
%ADD019C,0.2*%
%ADD026R,1X0.8*%
%ADD028R,2.7X1.5*%
%ADD029C,1.9*%
%ADD031C,1.7*%
%ADD032C,3.4*%
%ADD033C,2.1*%
%ADD042R,0.8X1*%
%ADD052R,1.3X1.8*%
%ADD053R,2.3X1.8*%
%ADD054R,1.5X0.85*%
%ADD055R,3.3X5*%
*
*
*
*
G04 PC Custom Flashes*
G04 Layer Name BD9E300EFJ-EVK-004.pcb - flashes*
%LPD*%
*
*
G04 PC Circuitry*
G04 Layer Name BD9E300EFJ-EVK-004.pcb - circuitry*
%LPD*%
*
G54D19*
G01X8999999Y31600000D02*
G75*
G03X8999999I-199999D01*
G01X8550000D02*
X9050000D01*
X8800000Y31850000D02*
Y31350000D01*
X39799999Y8400000D02*
G03X39799999I-199999D01*
G01X39350000D02*
X39850000D01*
X39600000Y8650000D02*
Y8150000D01*
X40399999Y8400000D02*
G03X40399999I-199999D01*
G01X39950000D02*
X40450000D01*
X40200000Y8650000D02*
Y8150000D01*
G54D26*
X13350000Y11330000D03*
Y11470000D03*
X13000000Y12270000D03*
Y12130000D03*
X12850000D03*
Y12270000D03*
G54D28*
X11850000Y12070000D03*
Y12330000D03*
X11450000Y12070000D03*
Y12330000D03*
G54D29*
X11850000Y14200000D03*
X11600000D03*
X11350000D03*
G54D31*
X11850000Y11800000D03*
Y12800000D03*
X13800000Y13100000D03*
X12700000D03*
X13100000Y11900000D03*
Y11400000D03*
G54D32*
X10500000Y10500000D03*
X14500000D03*
X10500000Y14500000D03*
X14500000D03*
G54D33*
X13654000Y14100000D03*
X13146000D03*
X10600000Y12454000D03*
Y11946000D03*
G54D42*
X13770000Y11350000D03*
X13630000D03*
X13030000Y11650000D03*
X13170000D03*
X12180000Y12100000D03*
X12320000D03*
X13630000Y11500000D03*
X13770000D03*
X13470000Y11650000D03*
X13330000D03*
G54D52*
X13525000Y13100000D03*
X13275000D03*
X13525000Y13400000D03*
X13275000D03*
G54D53*
X13500000Y12145000D03*
Y12755000D03*
G54D54*
X12285000Y11890500D03*
Y11763500D03*
Y11636500D03*
Y11509500D03*
X12815000D03*
Y11636500D03*
Y11763500D03*
Y11890500D03*
G54D55*
X12550000Y11700000D03*
G74*
X0Y0D02*
M02*
